<svg width="42" height="47" viewBox="0 0 42 47" fill="none" xmlns="http://www.w3.org/2000/svg">
<path d="M13.2487 6.86768C9.36189 8.39823 6.04122 11.0459 3.70029 14.4143C-2.01857 22.6321 -1.03687 33.7966 6.14867 40.912C14.3506 49.03 27.6463 49.03 35.846 40.9077C42.9941 33.8327 44.0479 22.6837 38.3096 14.4316C35.9662 11.0566 32.6434 8.40238 28.7433 6.87166L26.0938 9.42406C26.0042 9.50633 25.9714 9.61024 25.9933 9.73147L26.3714 11.905C33.2314 14.176 37.9491 20.5578 37.9491 27.8296C37.9491 32.4667 36.0494 36.6625 32.9823 39.7018C26.3977 46.2226 15.5902 46.2226 9.00781 39.7018C3.09868 33.8499 2.36668 24.593 7.32019 17.9148C9.37073 15.1395 12.2607 13.0179 15.6229 11.9072L16.001 9.73369C16.0229 9.61246 15.9879 9.51071 15.9005 9.42628L13.2487 6.86768ZM25.5891 18.9106C23.0533 16.3971 18.9435 16.3971 16.4056 18.9106C13.8698 21.4218 13.8698 25.4918 16.4056 28.0029C18.9436 30.5163 23.0556 30.5163 25.5891 28.0029C28.1249 25.4938 28.1249 21.4217 25.5891 18.9106ZM22.3187 30.6354L24.0501 32.9128L27.6658 30.5747C26.9138 30.1288 26.07 29.7586 25.1606 29.475C24.3233 30.0465 23.3571 30.4492 22.3187 30.6354ZM14.3266 30.5748L17.9424 32.9128L19.6737 30.6354C18.6353 30.4492 17.6735 30.0465 16.8319 29.475C15.9225 29.7564 15.0787 30.1288 14.3266 30.5748ZM24.2472 33.8178L22.6951 35.6709L24.4789 40.5744C24.538 40.7302 24.4942 40.9034 24.3871 41.016L22.0546 43.4342C24.5292 43.2588 26.7459 42.4708 28.403 41.2909C32.3598 38.4636 32.3969 33.9521 28.4621 31.0947L24.2472 33.8178ZM19.9407 43.4343L17.6103 41.0162C17.4988 40.9036 17.4573 40.7304 17.5141 40.5745L19.298 35.6711L17.7503 33.8179L13.5378 31.0945C9.60288 33.9521 9.64004 38.4638 13.5968 41.2908C15.2494 42.4685 17.4661 43.2568 19.9407 43.4343ZM21.895 36.0174H20.0981L18.4236 40.6134L20.9944 43.2806L23.5652 40.6134L21.895 36.0174ZM19.9997 35.1471H21.9978L23.3925 33.478L21.3113 30.7438C21.1037 30.7525 20.8916 30.7525 20.6861 30.7438L18.605 33.478L19.9997 35.1471ZM28.5537 5.84789C28.7613 5.64872 28.6499 5.30234 28.3569 5.26337L24.1204 4.65718C23.7138 4.59873 23.3815 4.35843 23.2 3.99474L21.3069 0.193213C21.1801 -0.0644043 20.8107 -0.0644043 20.6817 0.193213L18.793 3.99474C18.6093 4.35844 18.2771 4.59871 17.8705 4.65718L13.6339 5.26337C13.3432 5.30234 13.2339 5.64872 13.4415 5.84789L16.5086 8.80508C16.8015 9.08652 16.9283 9.47617 16.8627 9.87454L16.1348 14.0528C16.0867 14.3342 16.384 14.5507 16.6397 14.4143L20.4303 12.4399C20.7932 12.2494 21.202 12.2494 21.567 12.4399L25.3533 14.4143C25.6112 14.5485 25.9085 14.3342 25.8583 14.0528L25.1325 9.87454C25.0625 9.4762 25.1915 9.08651 25.4866 8.80508L28.5537 5.84789Z" fill="#BC6BC5"/>
</svg>
