<svg width="45" height="56" viewBox="0 0 45 56" fill="none" xmlns="http://www.w3.org/2000/svg">
<path fill-rule="evenodd" clip-rule="evenodd" d="M44.0648 5.18237L39.9134 0.950797V5.18237H44.0648ZM28.8708 8.11848C28.8708 7.74661 29.1665 7.44524 29.5313 7.44524C29.8961 7.44524 30.1918 7.74663 30.1918 8.11848V8.59973C30.3658 8.66292 30.528 8.75042 30.6734 8.8598C31.0096 9.10771 31.2457 9.46743 31.3459 9.87575C31.4317 10.2355 31.2147 10.6001 30.8594 10.6876C30.5065 10.7726 30.1488 10.5514 30.063 10.1917C30.0368 10.0896 29.9772 10.0021 29.8913 9.94138C29.7864 9.86604 29.6577 9.82472 29.5289 9.82715C29.3787 9.82472 29.2332 9.87819 29.1212 9.98027C29.0353 10.0532 28.9853 10.1601 28.9853 10.2744C28.9853 10.3886 29.0353 10.4955 29.1212 10.5685C29.2332 10.6681 29.3787 10.7216 29.5289 10.7192C30.0058 10.7167 30.4684 10.8966 30.8237 11.2247C31.1861 11.5504 31.3912 12.0195 31.3912 12.5129C31.3912 13.0039 31.1861 13.473 30.8237 13.8011C30.6401 13.9712 30.4231 14.1024 30.1894 14.1899V14.6712V14.6688C30.1894 15.0406 29.8937 15.342 29.5289 15.342C29.1641 15.342 28.8684 15.0406 28.8684 14.6688V14.1875C28.6968 14.1243 28.5346 14.0368 28.3868 13.9274C28.0506 13.6795 27.8145 13.3198 27.7143 12.9115C27.6285 12.5493 27.8479 12.1872 28.2008 12.0997C28.5561 12.0122 28.9114 12.2334 28.9972 12.5955C29.0234 12.6976 29.0854 12.7851 29.1689 12.8434C29.2762 12.9212 29.4025 12.9601 29.5313 12.9577C29.6815 12.9625 29.827 12.9066 29.939 12.807C30.0249 12.7341 30.075 12.6271 30.075 12.5129C30.075 12.3986 30.0249 12.2917 29.939 12.2188C29.827 12.1167 29.6815 12.0632 29.5313 12.0657C29.0544 12.0681 28.5918 11.8882 28.2365 11.5625C27.8765 11.2368 27.669 10.7678 27.669 10.2744C27.669 9.78095 27.8765 9.31186 28.2365 8.98619C28.4225 8.81362 28.6371 8.68237 28.8708 8.5973V8.11606V8.11848ZM33.3893 7.4598C31.5486 5.58345 28.661 5.29418 26.4959 6.76709C24.3308 8.24243 23.4891 11.0716 24.4858 13.5237C25.4825 15.9761 28.041 17.3689 30.5948 16.8512C33.1486 16.3335 34.987 14.0488 34.987 11.3946C34.9894 9.9193 34.4147 8.50251 33.3893 7.4598ZM29.5265 4.48237H29.5289C26.2932 4.48237 23.5106 6.81326 22.8784 10.0459C22.2465 13.2809 23.9443 16.5182 26.9343 17.78C29.922 19.0414 33.37 17.9769 35.1652 15.2353C36.9631 12.4937 36.6102 8.84075 34.3211 6.50744C33.0526 5.20956 31.3263 4.48281 29.5284 4.48281L29.5265 4.48237ZM19.667 25.3727H4.17523V32.652H19.667V25.3727ZM3.51475 24.0261H20.3275C20.5016 24.0261 20.6709 24.0966 20.7949 24.2254C20.9189 24.3518 20.988 24.5244 20.988 24.7018V33.3251C20.988 33.5025 20.9165 33.6751 20.7949 33.8015C20.6709 33.9279 20.5016 33.9984 20.3275 33.9984H3.51475C3.14993 33.9984 2.85428 33.697 2.85428 33.3251V24.7018C2.85428 24.5244 2.92343 24.3518 3.04742 24.2255C3.17142 24.0966 3.34068 24.0261 3.51475 24.0261ZM8.15044e-05 23.7223L0.00246595 23.7199C0.00246595 23.0005 0.281446 22.3078 0.782154 21.7974C1.28286 21.287 1.96246 21.0002 2.67067 21.0026H21.2885C21.9942 21.0026 22.6714 21.2894 23.1721 21.7974C23.3605 21.9918 23.5203 22.2106 23.6443 22.4512C23.6538 22.4731 23.6633 22.4949 23.6753 22.5144C23.8565 22.8887 23.9519 23.3019 23.9495 23.7199V53.2802C23.9519 53.9875 23.6824 54.6656 23.2007 55.1736L23.1697 55.2028C22.669 55.7132 21.9918 55.9999 21.286 55.9999H2.66826C1.96005 56.0048 1.27577 55.7253 0.767845 55.2222C0.274266 54.7263 -0.0047013 54.0458 5.99652e-05 53.3385V23.7198L8.15044e-05 23.7223ZM25.2751 48.555H40.1943V45.004H25.2751V48.555ZM12.5186 19.6561L12.5162 4.89778H9.03727V19.6561H12.5186ZM5.94923 39.0102H4.89051V40.0869H5.94684L5.94923 39.0102ZM4.72125 37.6636C4.08696 37.6661 3.57195 38.1886 3.56957 38.8376V40.2619V40.2595C3.57195 40.9084 4.087 41.431 4.72125 41.4334H6.11856C6.75284 41.431 7.26785 40.9084 7.27023 40.2595V38.8376C7.26785 38.1886 6.75281 37.6661 6.11856 37.6636H4.72125ZM12.5041 39.0102H11.4501V40.0869H12.5065L12.5089 39.0102H12.5041ZM11.2785 37.6636C10.6442 37.6661 10.1292 38.1886 10.1268 38.8376V40.2619V40.2595C10.1292 40.9084 10.6442 41.4334 11.2785 41.4334H12.6758C13.3101 41.4334 13.8251 40.9084 13.8251 40.2595V38.8376C13.8251 38.1886 13.3101 37.6661 12.6758 37.6636H11.2785ZM19.0613 39.0102H18.005V40.0869H19.0613V39.0102ZM17.8334 37.6636H17.8357C17.2014 37.6661 16.6864 38.1886 16.6841 38.8376V40.2619V40.2595C16.6864 40.9084 17.2015 41.4334 17.8357 41.4334H19.2307C19.8673 41.4334 20.3823 40.9084 20.3823 40.2595V38.8376C20.3823 38.1886 19.8673 37.6661 19.2307 37.6636H17.8334ZM5.9491 44.9504H4.89039V46.0272H5.94672L5.9491 44.9504ZM4.72112 43.6039C4.08684 43.6063 3.57183 44.1289 3.56945 44.7778V46.2021C3.57183 46.8487 4.08687 47.3712 4.72112 47.3736H6.11843C6.75272 47.3712 7.26773 46.8486 7.27011 46.2021V44.7778C7.26773 44.1288 6.75268 43.6063 6.11843 43.6039H4.72112ZM12.504 44.9504H11.45V46.0272H12.5063L12.5087 44.9504H12.504ZM11.2784 43.6039C10.6441 43.6063 10.1291 44.1289 10.1267 44.7778V46.2021C10.1291 46.8487 10.6441 47.3736 11.2784 47.3736H12.6757C13.31 47.3736 13.825 46.8486 13.825 46.2021V44.7778C13.825 44.1288 13.3099 43.6063 12.6757 43.6039H11.2784ZM19.0612 44.9504H18.0049V46.0272H19.0612V44.9504ZM17.8332 43.6039H17.8356C17.2013 43.6063 16.6863 44.1289 16.6839 44.7778V46.2021C16.6863 46.8487 17.2014 47.3736 17.8356 47.3736H19.2305C19.8672 47.3736 20.3822 46.8486 20.3822 46.2021V44.7778C20.3822 44.1288 19.8672 43.6063 19.2305 43.6039H17.8332ZM5.94898 50.5939H4.89027V51.6706H5.9466L5.94898 50.5939ZM4.721 49.2473C4.08671 49.2497 3.5717 49.7747 3.56932 50.4213V51.8456C3.57171 52.4921 4.08675 53.0171 4.721 53.0195H6.11831C6.7526 53.0171 7.26761 52.4921 7.26999 51.8456V50.4213C7.2676 49.7747 6.75256 49.2497 6.11831 49.2473H4.721ZM12.5038 50.5939H11.4499V51.6706H12.5062L12.5086 50.5939H12.5038ZM11.2782 49.2473C10.644 49.2497 10.1289 49.7747 10.1266 50.4213V51.8456C10.129 52.4921 10.644 53.0171 11.2782 53.0195H12.6756C13.3098 53.0171 13.8249 52.4921 13.8249 51.8456V50.4213C13.8249 49.7747 13.3098 49.2497 12.6756 49.2473H11.2782ZM19.0611 50.5939H18.0048V51.6706H19.0611V50.5939ZM17.8331 49.2473H17.8355C17.1988 49.2497 16.6862 49.7747 16.6838 50.4213V51.8456C16.6862 52.4921 17.2012 53.0171 17.8355 53.0195H19.2304C19.8671 53.0171 20.3821 52.4921 20.3821 51.8456V50.4213C20.3821 49.7747 19.8671 49.2497 19.2304 49.2473H17.8331ZM25.2729 43.6571L25.2753 33.7333H41.2561C41.6209 33.7333 41.9165 33.432 41.9165 33.0601C41.9165 32.6882 41.6208 32.3869 41.2561 32.3869H25.2753V28.2914H41.2561C41.6209 28.2914 41.9165 27.9901 41.9165 27.6182C41.9165 27.2463 41.6208 26.945 41.2561 26.945H25.2753V23.7196C25.2753 23.428 25.2443 23.1363 25.1823 22.8495H41.2558C41.6207 22.8495 41.9163 22.5481 41.9163 22.1763C41.9163 21.8044 41.6206 21.5031 41.2558 21.5031H24.6292C24.4766 21.2673 24.3026 21.0461 24.1047 20.8468C23.3583 20.0812 22.3426 19.6534 21.2839 19.6558H13.8374V0H38.5953V5.85518C38.5953 6.03504 38.6645 6.20518 38.7885 6.33156C38.9125 6.45795 39.0794 6.52844 39.2558 6.52844H45V43.6573L25.2729 43.6571Z" fill="#B256BD"/>
</svg>
