<svg width="40" height="40" viewBox="0 0 40 40" fill="none" xmlns="http://www.w3.org/2000/svg">
<path d="M19.6356 39.1518C17.0356 39.1026 14.471 38.5389 12.09 37.4932C9.70896 36.4475 7.55868 34.9406 5.76313 33.0595C3.96759 31.1783 2.56243 28.9602 1.62871 26.5331C0.694984 24.106 0.251133 21.518 0.322937 18.9184C0.477368 13.8504 2.60237 9.04254 6.24623 5.51683C9.89008 1.99111 14.7653 0.0256488 19.8357 0.038282C22.4538 0.0102786 25.0507 0.511632 27.4702 1.51224C29.8898 2.51284 32.0824 3.99206 33.9161 5.8611C35.7497 7.73013 37.1868 9.95043 38.141 12.3887C39.0952 14.8269 39.5469 17.4329 39.4689 20.05C39.3425 25.2035 37.1893 30.0992 33.4763 33.6752C29.7634 37.2512 24.7901 39.2191 19.6356 39.1518ZM37.6732 19.4587C37.6794 17.1387 37.2276 14.8403 36.3442 12.6951C35.4608 10.5498 34.1629 8.59995 32.5248 6.95706C30.8868 5.31416 28.9409 4.01052 26.7983 3.12079C24.6557 2.23107 22.3585 1.77274 20.0385 1.77204C15.3027 1.74434 10.7498 3.59894 7.38132 6.92788C4.01283 10.2568 2.10476 14.7875 2.07653 19.5233C2.0513 21.8797 2.49763 24.2173 3.38931 26.3986C4.28098 28.58 5.59983 30.5609 7.26849 32.2249C8.93716 33.8889 10.9219 35.2023 13.1057 36.0878C15.2895 36.9734 17.6283 37.4132 19.9846 37.3813C22.324 37.3693 24.6382 36.8959 26.7944 35.9881C28.9505 35.0803 30.9063 33.7561 32.5498 32.0912C34.1933 30.4263 35.4921 28.4534 36.3718 26.2857C37.2516 24.118 37.695 21.798 37.6767 19.4587H37.6732Z" fill="#B256BD"/>
<path d="M15.0901 14.3841L15.0901 14.1013L14.8234 14.1955C13.9447 14.5059 13.3146 15.3438 13.3146 16.3293V23.8918C13.3146 26.2805 15.251 28.2168 17.6396 28.2168H22.4521C23.4372 28.2168 24.2747 27.5875 24.5855 26.7096L24.6799 26.4429L24.397 26.4428L18.3304 26.4418L18.1109 26.4347C16.4238 26.3236 15.0896 24.9197 15.0896 23.2044L15.0901 14.3841ZM27.4646 13.5793C27.4646 12.3298 26.4517 11.3168 25.2021 11.3168H18.3271C17.0776 11.3168 16.0646 12.3298 16.0646 13.5793V23.2043C16.0646 24.4539 17.0776 25.4668 18.3271 25.4668H25.2021C26.4517 25.4668 27.4646 24.4539 27.4646 23.2043V13.5793ZM18.3271 13.0918H25.2021C25.4714 13.0918 25.6896 13.3101 25.6896 13.5793V23.2043C25.6896 23.4736 25.4714 23.6918 25.2021 23.6918H18.3271C18.0579 23.6918 17.8396 23.4736 17.8396 23.2043V13.5793C17.8396 13.3101 18.0579 13.0918 18.3271 13.0918Z" fill="#B256BD" stroke="#B256BD" stroke-width="0.4"/>
</svg>
