<svg width="41" height="41" viewBox="0 0 41 41" fill="none" xmlns="http://www.w3.org/2000/svg">
<path d="M20.72 0C9.53657 0 0.469971 9.0666 0.469971 20.25C0.469971 31.4334 9.53657 40.5 20.72 40.5C31.9034 40.5 40.97 31.4334 40.97 20.25C40.97 9.0666 31.9034 0 20.72 0ZM20.72 37.8C11.0432 37.8 3.16997 29.9268 3.16997 20.25C3.16997 10.5732 11.0432 2.7 20.72 2.7C30.3968 2.7 38.27 10.5732 38.27 20.25C38.27 29.9268 30.3968 37.8 20.72 37.8ZM28.1936 10.8675L20.7713 18.2898L14.1158 10.8675C13.8612 10.6216 13.5201 10.4855 13.1662 10.4886C12.8122 10.4917 12.4736 10.6336 12.2233 10.8839C11.973 11.1342 11.831 11.4728 11.828 11.8268C11.8249 12.1808 11.961 12.5218 12.2069 12.7764L18.8651 20.1987L11.3402 27.7236C11.0943 27.9782 10.9582 28.3192 10.9613 28.6732C10.9643 29.0272 11.1063 29.3658 11.3566 29.6161C11.6069 29.8664 11.9455 30.0083 12.2995 30.0114C12.6534 30.0145 12.9945 29.8784 13.2491 29.6325L20.6714 22.2102L27.3296 29.6325C27.5842 29.8784 27.9252 30.0145 28.2792 30.0114C28.6331 30.0083 28.9717 29.8664 29.222 29.6161C29.4723 29.3658 29.6143 29.0272 29.6174 28.6732C29.6205 28.3192 29.4844 27.9782 29.2385 27.7236L22.5776 20.3013L30.1025 12.7764C30.3484 12.5218 30.4845 12.1808 30.4814 11.8268C30.4783 11.4728 30.3363 11.1342 30.086 10.8839C29.8357 10.6336 29.4971 10.4917 29.1432 10.4886C28.7892 10.4855 28.4482 10.6216 28.1936 10.8675Z" fill="white"/>
</svg>
