<svg width="80" height="80" viewBox="0 0 80 80" fill="none" xmlns="http://www.w3.org/2000/svg">
<circle cx="40" cy="40" r="39.25" fill="white" stroke="#250C2D" stroke-width="1.5"/>
<path d="M47.6001 20.42C46.7801 19.6 45.3601 20.16 45.3601 21.3V28.28C45.3601 31.2 47.8401 33.62 50.8601 33.62C52.7601 33.64 55.4001 33.64 57.6601 33.64C58.8001 33.64 59.4001 32.3 58.6001 31.5C55.7201 28.6 50.5601 23.38 47.6001 20.42Z" fill="#250C2D"/>
<path d="M57 36.38H51.22C46.48 36.38 42.62 32.52 42.62 27.78V22C42.62 20.9 41.72 20 40.62 20H32.14C25.98 20 21 24 21 31.14V48.86C21 56 25.98 60 32.14 60H47.86C54.02 60 59 56 59 48.86V38.38C59 37.28 58.1 36.38 57 36.38ZM39 51.5H31C30.18 51.5 29.5 50.82 29.5 50C29.5 49.18 30.18 48.5 31 48.5H39C39.82 48.5 40.5 49.18 40.5 50C40.5 50.82 39.82 51.5 39 51.5ZM43 43.5H31C30.18 43.5 29.5 42.82 29.5 42C29.5 41.18 30.18 40.5 31 40.5H43C43.82 40.5 44.5 41.18 44.5 42C44.5 42.82 43.82 43.5 43 43.5Z" fill="#250C2D"/>
</svg>
