<svg width="124" height="33" viewBox="0 0 124 33" fill="none" xmlns="http://www.w3.org/2000/svg">
<g clip-path="url(#clip0_1929_1049)">
<path d="M5.32785 18.45H12.7191C16.002 18.45 18.6625 15.6284 18.6625 12.1468V1.30719L5.32785 18.45Z" fill="#888888"/>
<path d="M3.97072 12.8656C2.92269 11.5136 2.68932 9.71398 3.23818 8.16455C0.696996 12.3147 -0.0268958 17.8353 2.2593 23.4569C3.57311 26.6842 5.99329 29.2689 9.02931 30.6761C12.3786 32.23 15.6891 32.4963 18.6625 31.8031L3.97072 12.8656Z" fill="#888888"/>
<path d="M3.75474 20.9116C3.1713 21.5888 2.68944 23.7601 3.24046 25.3072C1.74946 22.8719 0.882957 19.9682 0.882957 16.8489C0.882957 8.26434 7.43251 1.30719 15.5141 1.30719C16.5945 1.30719 17.649 1.43114 18.6625 1.66756L3.75474 20.9116Z" fill="#888888"/>
<path d="M49.7763 29.8786H28.6631V1.30719H49.6525V5.75512H33.2371V13.4695H49.0006V17.7142H33.2371V25.3865H49.7763V29.8764V29.8786Z" fill="#888888"/>
<path d="M67.9862 9.7685H72.0007V30.4732H68.0665L67.8667 27.1145C67.2519 28.3735 66.2939 29.3393 64.997 30.0119C63.6979 30.6846 62.3815 31.0209 61.0433 31.0209C58.0715 31.0482 55.6363 30.096 53.7377 28.1643C51.8368 26.2328 50.8875 23.5443 50.8875 20.1016C50.8875 16.6587 51.8586 14.1022 53.7984 12.1842C55.7384 10.2662 58.1801 9.30719 61.1258 9.30719C62.5444 9.30719 63.8695 9.64352 65.1012 10.3162C66.333 10.9888 67.2562 11.8978 67.8711 13.0455L67.9905 9.7685H67.9862ZM56.8659 15.1225C55.6341 16.3679 55.0193 18.0267 55.0193 20.0993C55.0193 22.1718 55.6341 23.8376 56.8659 25.0966C58.0975 26.3554 59.6226 26.9872 61.443 26.9872C62.6204 26.9872 63.6719 26.735 64.5951 26.2305C65.5184 25.7259 66.2136 25.0692 66.6827 24.2556C67.152 23.4444 67.4996 22.5559 67.7276 21.5878C67.9557 20.6219 67.9557 19.6494 67.7276 18.6699C67.4996 17.6904 67.152 16.7951 66.6827 15.9815C66.2136 15.1703 65.5184 14.5112 64.5951 14.0067C63.6719 13.5023 62.6204 13.2499 61.443 13.2499C59.6226 13.2499 58.0975 13.8727 56.8659 15.1179V15.1225Z" fill="#888888"/>
<path d="M91.9212 10.4501V12.4528L81.7897 26.8061H92.003V31.0215H75.3347V29.2694L85.7535 14.372H76.0311V10.4501H91.9234H91.9212Z" fill="#888888"/>
<path d="M95.6135 1.64559C96.5391 1.19439 97.467 1.19439 98.3926 1.64559C99.3183 2.09679 99.7811 2.88695 99.7811 4.01609C99.7811 5.14522 99.3183 5.94226 98.3926 6.4072C97.467 6.87214 96.5391 6.87214 95.6135 6.4072C94.6878 5.94226 94.225 5.14522 94.225 4.01609C94.225 2.88695 94.6878 2.09679 95.6135 1.64559ZM94.7442 10.0695V31.0215H99.2149V10.0695H94.7442Z" fill="#888888"/>
<path d="M120.158 12.4177C122.131 14.493 123.117 17.0812 123.117 20.1849C123.117 23.2887 122.145 25.9067 120.198 27.9521C118.251 29.9976 115.693 31.0215 112.519 31.0215C109.345 31.0215 106.834 29.9976 104.903 27.9521C102.972 25.9067 102.004 23.3161 102.004 20.1849C102.004 17.0538 102.976 14.4563 104.923 12.3971C106.87 10.3379 109.401 9.30719 112.519 9.30719C115.638 9.30719 118.184 10.3448 120.158 12.4177ZM107.987 15.3176C106.843 16.6438 106.269 18.2678 106.269 20.1849C106.269 22.1022 106.836 23.7123 107.967 25.0111C109.098 26.3098 110.617 26.958 112.522 26.958C114.425 26.958 115.951 26.3098 117.095 25.0111C118.24 23.7123 118.813 22.1044 118.813 20.1849C118.813 18.2655 118.22 16.6782 117.033 15.3382C115.845 13.9982 114.343 13.3271 112.522 13.3271C110.7 13.3271 109.134 13.9913 107.987 15.3176Z" fill="#888888"/>
</g>
<defs>
<clipPath id="clip0_1929_1049">
<rect width="123.345" height="32" fill="white" transform="translate(0.327278 0.73584)"/>
</clipPath>
</defs>
</svg>
