<svg width="60" height="60" viewBox="0 0 60 60" fill="none" xmlns="http://www.w3.org/2000/svg">
<path d="M29.9736 51.9926C15.8436 51.8155 7.46202 40.0715 7.93887 29.2654C8.43675 17.9754 17.6931 7.55665 30.7748 7.93532C42.7888 8.28419 52.3538 18.5311 52.0277 30.9028C51.7525 41.3074 43.2447 51.9961 29.9754 51.9926H29.9736ZM46.7509 30.0823C46.7509 20.6681 39.3387 13.1771 29.9999 13.1561C20.9522 13.135 13.1421 20.9153 13.1684 29.9771C13.1929 38.6252 19.8407 46.7035 30.2804 46.7596C39.2896 46.8087 46.7509 39.2177 46.7509 30.0823Z" fill="#B256BD"/>
<path d="M7.41121 46.1227C8.29302 45.1883 9.09945 44.3345 9.94971 43.4334C11.7466 46.0613 13.9135 48.251 16.5221 50.0076C15.642 50.8631 14.7988 51.68 13.8995 52.5566C14.89 53.5453 15.784 54.4272 16.6641 55.3247C16.8429 55.5071 17.0323 55.7192 17.1111 55.9541C17.3268 56.601 16.9148 57.2058 16.1837 57.3128C12.2726 57.8843 8.35789 58.4418 4.44496 59.0045C3.64554 59.1202 2.84437 59.2342 2.04496 59.3534C1.04744 59.5024 0.491706 58.9502 0.633708 57.9544C1.28586 53.3911 1.93626 48.8277 2.58842 44.2644C2.6077 44.1347 2.64978 44.0067 2.65854 43.877C2.68659 43.3896 2.9145 43.0337 3.38082 42.8865C3.86468 42.734 4.26263 42.8935 4.61676 43.2651C5.48981 44.182 6.38564 45.0796 7.40946 46.1245L7.41121 46.1227Z" fill="#B256BD"/>
<path d="M43.478 9.96857C44.3511 9.12007 45.1943 8.30312 46.1007 7.42131C45.0926 6.41853 44.1968 5.50692 43.2782 4.61985C42.8714 4.2254 42.6558 3.76083 42.9556 3.28048C43.1344 2.99472 43.5341 2.72825 43.869 2.67741C47.128 2.17427 50.394 1.71671 53.6583 1.24687C55.0643 1.04527 56.4703 0.854178 57.8745 0.642053C58.9632 0.477261 59.5031 1.00845 59.3471 2.08486C58.7002 6.58333 58.0603 11.0818 57.417 15.5803C57.3854 15.7959 57.4029 16.0448 57.2977 16.2201C57.1102 16.5375 56.8945 16.974 56.6053 17.0564C56.2774 17.1493 55.7515 17.0231 55.492 16.7899C54.5191 15.9151 53.6197 14.9579 52.5889 13.9288C51.7737 14.8264 50.9743 15.7065 50.1153 16.6514C48.2482 13.9218 46.0814 11.7322 43.4763 9.96857H43.478Z" fill="#B256BD"/>
<path d="M9.93374 16.5726C9.05719 15.6645 8.25426 14.8318 7.38297 13.9272C6.44506 14.8721 5.56675 15.7697 4.67092 16.6498C4.47457 16.8426 4.23439 17.0372 3.98019 17.1126C3.3368 17.3054 2.79509 16.918 2.68465 16.1869C2.3726 14.1358 2.08158 12.0794 1.78706 10.0248C1.41189 7.4074 1.049 4.79001 0.665071 2.17438C0.491514 0.994538 0.994655 0.480878 2.15872 0.649176C6.78341 1.32062 11.4099 1.98329 16.038 2.63544C16.5342 2.70557 16.9391 2.86335 17.1022 3.36123C17.2705 3.87489 17.0724 4.28336 16.6902 4.64976C15.7909 5.51229 14.9143 6.39585 13.9448 7.35305C14.8372 8.20331 15.6962 9.02025 16.6148 9.89505C13.9343 11.7323 11.7359 13.8904 9.93374 16.5726Z" fill="#B256BD"/>
<path d="M46.0491 52.6109C45.1638 51.7344 44.3416 50.9227 43.5334 50.125C44.7062 49.1135 45.9369 48.1721 47.0239 47.0851C48.116 45.993 49.0627 44.757 50.0935 43.5614C50.8509 44.3731 51.6608 45.2426 52.5093 46.1542C53.5331 45.1252 54.4044 44.2697 55.2512 43.3896C55.6404 42.9829 56.0559 42.6919 56.6326 42.8847C57.1638 43.0618 57.29 43.5246 57.3619 44.026C58.0298 48.7173 58.7101 53.4068 59.3727 58.0999C59.4919 58.9379 58.9117 59.4919 58.0649 59.3709C53.3526 58.6995 48.642 58.0123 43.9296 57.3443C43.43 57.2742 43.039 57.0971 42.8865 56.5975C42.7375 56.1101 42.9128 55.7192 43.2792 55.3651C44.1908 54.485 45.0797 53.5822 46.0491 52.6162V52.6109Z" fill="#B256BD"/>
<path d="M46.7522 30.0819C46.7522 39.2174 39.2892 46.8083 30.2817 46.7592C19.8438 46.7031 13.1942 38.6231 13.1697 29.9768C13.1434 20.915 20.9535 13.1347 30.0012 13.1557C39.34 13.1785 46.7522 20.6678 46.7522 30.0819ZM40.7162 39.9326C44.1751 36.6736 45.8668 30.4501 43.6492 24.621C41.1089 17.9452 34.533 15.0052 29.5069 15.2296C23.1256 15.5154 17.5998 20.0472 15.8064 26.304C14.3004 31.551 16.1447 36.9559 19.3073 39.8941C20.6274 36.8139 22.9029 34.7031 25.9919 33.4251C23.1747 30.3957 22.9573 26.7773 25.3748 24.1968C27.5837 21.8388 31.5457 21.6074 34.086 23.7006C35.4061 24.7876 36.0652 26.2374 36.2476 27.9063C36.4895 30.1135 35.6217 31.9017 34.0264 33.3848C38.2987 35.8672 39.1174 36.6701 40.7162 39.9344V39.9326ZM29.9206 44.6853C33.1709 44.6573 36.0547 43.7509 38.6283 41.8663C38.9544 41.6279 38.9999 41.4193 38.8737 41.0564C37.601 37.4029 33.958 34.8399 30.0048 34.8364C26.0673 34.8329 22.405 37.3976 21.1218 41.0406C20.9973 41.3965 21.0201 41.6033 21.3584 41.8488C23.939 43.7176 26.8316 44.6047 29.9206 44.6853ZM30.0153 32.6783C32.4205 32.6643 34.2227 30.8463 34.1929 28.4673C34.1614 26.1199 32.3434 24.3458 29.9767 24.3545C27.589 24.3633 25.771 26.2006 25.8008 28.5708C25.8306 30.9252 27.6433 32.6906 30.0153 32.6765V32.6783Z" fill="white"/>
<path d="M40.7186 39.9328C39.1197 36.6685 38.2993 35.8674 34.0287 33.3832C35.6223 31.9001 36.4918 30.1119 36.2499 27.9048C36.0658 26.2376 35.4084 24.7878 34.0883 23.6991C31.5481 21.6076 27.5861 21.839 25.3771 24.1952C22.9579 26.7775 23.1753 30.3942 25.9942 33.4235C22.9053 34.7016 20.6297 36.8141 19.3097 39.8925C16.1471 36.9543 14.3028 31.5495 15.8087 26.3024C17.6039 20.0474 23.1297 15.5138 29.5092 15.2281C34.5354 15.0037 41.1113 17.9419 43.6515 24.6195C45.8692 30.4468 44.1792 36.6703 40.7186 39.9311V39.9328Z" fill="#B256BD"/>
<path d="M29.9206 44.6835C26.8334 44.6011 23.939 43.7158 21.3584 41.847C21.0201 41.6015 20.9956 41.3947 21.1218 41.0388C22.405 37.3958 26.0673 34.831 30.0048 34.8345C33.9563 34.838 37.601 37.4011 38.8737 41.0546C38.9999 41.4192 38.9544 41.6261 38.6283 41.8645C36.0547 43.7491 33.1709 44.6537 29.9206 44.6835Z" fill="#B256BD"/>
<path d="M30.014 32.6762C27.6421 32.6902 25.8294 30.9248 25.7996 28.5704C25.7698 26.2002 27.5877 24.3629 29.9755 24.3542C32.3421 24.3454 34.1601 26.1178 34.1917 28.467C34.2232 30.8459 32.4193 32.6639 30.014 32.6779V32.6762Z" fill="#B256BD"/>
</svg>
