<svg width="58" height="64" viewBox="0 0 58 64" fill="none" xmlns="http://www.w3.org/2000/svg">
<path fill-rule="evenodd" clip-rule="evenodd" d="M28.1864 15.6288V10.2608H11.9387V15.6288H28.1864ZM23.6108 8.79352V4.23783C23.6108 3.96505 23.7184 3.70344 23.9099 3.51056C24.1015 3.31767 24.3613 3.20931 24.6321 3.20931C24.903 3.20931 25.1628 3.31767 25.3543 3.51056C25.5458 3.70344 25.6534 3.96505 25.6534 4.23783V8.79352H23.6108ZM16.4368 8.79352V1.05565C16.4332 0.918346 16.457 0.781709 16.5066 0.653798C16.5563 0.525888 16.631 0.409296 16.7261 0.310902C16.8213 0.212508 16.9351 0.134305 17.0607 0.0809079C17.1864 0.0275105 17.3214 0 17.4578 0C17.5941 0 17.7292 0.0275105 17.8548 0.0809079C17.9805 0.134305 18.0942 0.212508 18.1894 0.310902C18.2846 0.409296 18.3592 0.525888 18.4089 0.653798C18.4586 0.781709 18.4823 0.918346 18.4787 1.05565V8.79352H16.4368ZM45.5529 31.3107V25.9427H29.3058V31.3107H45.5529ZM39.452 39.7114C39.3157 39.715 39.18 39.6911 39.053 39.641C38.926 39.591 38.8102 39.5158 38.7125 39.42C38.6148 39.3242 38.5372 39.2096 38.4841 39.083C38.4311 38.9565 38.4038 38.8205 38.4038 38.6832C38.4038 38.5458 38.4311 38.4099 38.4841 38.2833C38.5372 38.1568 38.6148 38.0422 38.7125 37.9464C38.8102 37.8506 38.926 37.7754 39.053 37.7254C39.18 37.6753 39.3157 37.6514 39.452 37.655H44.5607C44.697 37.6514 44.8327 37.6753 44.9597 37.7254C45.0867 37.7754 45.2025 37.8506 45.3002 37.9464C45.3979 38.0422 45.4756 38.1568 45.5286 38.2833C45.5816 38.4099 45.6089 38.5458 45.6089 38.6832C45.6089 38.8205 45.5816 38.9565 45.5286 39.083C45.4756 39.2096 45.3979 39.3242 45.3002 39.42C45.2025 39.5158 45.0867 39.591 44.9597 39.641C44.8327 39.6911 44.697 39.715 44.5607 39.7114H39.452ZM40.8024 46.4214C40.5315 46.4214 40.2718 46.3131 40.0802 46.1202C39.8887 45.9273 39.7811 45.6657 39.7811 45.3929C39.7811 45.1201 39.8887 44.8585 40.0802 44.6656C40.2718 44.4727 40.5315 44.3644 40.8024 44.3644H44.5635C44.8344 44.3644 45.0942 44.4727 45.2857 44.6656C45.4772 44.8585 45.5848 45.1201 45.5848 45.3929C45.5848 45.6657 45.4772 45.9273 45.2857 46.1202C45.0942 46.3131 44.8344 46.4214 44.5635 46.4214H40.8024ZM11.4127 23.7231C11.1419 23.7231 10.8821 23.6148 10.6906 23.4219C10.499 23.229 10.3914 22.9674 10.3914 22.6946C10.3914 22.4218 10.499 22.1602 10.6906 21.9674C10.8821 21.7745 11.1419 21.6661 11.4127 21.6661H15.5349C15.8058 21.6661 16.0655 21.7745 16.2571 21.9674C16.4486 22.1602 16.5562 22.4218 16.5562 22.6946C16.5562 22.9674 16.4486 23.229 16.2571 23.4219C16.0655 23.6148 15.8058 23.7231 15.5349 23.7231H11.4127ZM11.4127 31.0187C11.1466 31.0116 10.8938 30.9002 10.708 30.7081C10.5223 30.5161 10.4184 30.2586 10.4184 29.9905C10.4184 29.7224 10.5223 29.465 10.708 29.2729C10.8938 29.0809 11.1466 28.9694 11.4127 28.9624H15.5349C15.6712 28.9587 15.8069 28.9827 15.9339 29.0327C16.061 29.0827 16.1767 29.1579 16.2744 29.2537C16.3721 29.3496 16.4498 29.4641 16.5028 29.5907C16.5558 29.7172 16.5832 29.8532 16.5832 29.9905C16.5832 30.1279 16.5558 30.2638 16.5028 30.3904C16.4498 30.5169 16.3721 30.6315 16.2744 30.7273C16.1767 30.8232 16.061 30.8983 15.9339 30.9484C15.8069 30.9984 15.6712 31.0223 15.5349 31.0187H11.4127ZM11.4127 38.3142C11.1466 38.3072 10.8938 38.1957 10.708 38.0037C10.5223 37.8116 10.4184 37.5541 10.4184 37.2861C10.4184 37.018 10.5223 36.7605 10.708 36.5685C10.8938 36.3764 11.1466 36.265 11.4127 36.2579H15.5349C15.6712 36.2543 15.8069 36.2782 15.9339 36.3282C16.061 36.3783 16.1767 36.4534 16.2744 36.5493C16.3721 36.6451 16.4498 36.7597 16.5028 36.8862C16.5558 37.0128 16.5832 37.1487 16.5832 37.2861C16.5832 37.4234 16.5558 37.5594 16.5028 37.6859C16.4498 37.8125 16.3721 37.927 16.2744 38.0229C16.1767 38.1187 16.061 38.1939 15.9339 38.2439C15.8069 38.2939 15.6712 38.3179 15.5349 38.3142H11.4127ZM11.4127 45.6105C11.1419 45.6105 10.8821 45.5021 10.6906 45.3092C10.499 45.1164 10.3914 44.8547 10.3914 44.582C10.3914 44.3092 10.499 44.0476 10.6906 43.8547C10.8821 43.6618 11.1419 43.5534 11.4127 43.5534H15.5349C15.8058 43.5534 16.0655 43.6618 16.2571 43.8547C16.4486 44.0476 16.5562 44.3092 16.5562 44.582C16.5562 44.8547 16.4486 45.1164 16.2571 45.3092C16.0655 45.5021 15.8058 45.6105 15.5349 45.6105H11.4127ZM51.0538 50.4546C50.5964 49.9908 50.0087 49.6795 49.3701 49.5625C48.7315 49.4455 48.0726 49.5286 47.4823 49.8006C46.892 50.0725 46.3987 50.5202 46.069 51.0832C45.7392 51.6463 45.5889 52.2976 45.6381 52.9494C45.6874 53.6012 45.934 54.2221 46.3447 54.7284C46.7553 55.2347 47.3102 55.6019 47.9346 55.7807C48.5589 55.9594 49.2227 55.9411 49.8364 55.7281C50.4501 55.5151 50.9841 55.1177 51.3665 54.5894C51.7637 54.0434 51.9777 53.3842 51.9777 52.7074C51.9777 52.0306 51.7637 51.3714 51.3665 50.8254C51.2724 50.6944 51.1678 50.5713 51.0538 50.4575V50.4546ZM11.223 64C11.6765 62.3023 12.3725 60.68 13.289 59.1838C12.7329 58.8597 12.1442 58.5958 11.5328 58.3965C9.62873 57.7809 7.57872 57.797 5.68433 58.4423C5.6552 58.4537 5.62463 58.4645 5.59549 58.4731C4.31908 58.9277 3.15685 59.6581 2.19027 60.6128C1.22368 61.5675 0.476129 62.7236 0 64H11.223ZM44.2039 59.1838C45.1199 60.6803 45.8158 62.3026 46.27 64H57.4915C57.0152 62.724 56.2678 61.5683 55.3015 60.6137C54.3352 59.6591 53.1734 58.9288 51.8974 58.4738C51.8671 58.4651 51.8372 58.4549 51.8079 58.443C49.9138 57.7977 47.864 57.7816 45.9601 58.3972C45.3486 58.5959 44.7598 58.8592 44.2039 59.1838ZM28.7458 52.5396C26.8114 52.5374 24.8926 52.8865 23.0813 53.5702C23.0493 53.5845 23.0174 53.596 22.9832 53.6074C21.4265 54.2071 19.9721 55.0477 18.6727 56.0989C17.6251 56.9448 16.6857 57.9182 15.8761 58.997C15.8497 59.0392 15.82 59.0792 15.7872 59.1165C14.702 60.5917 13.874 62.2421 13.3388 63.9971H44.1542C43.6184 62.2421 42.79 60.5916 41.7043 59.1165C41.6717 59.079 41.642 59.039 41.6155 58.997C40.806 57.9172 39.8666 56.9428 38.8188 56.0961C35.9629 53.787 32.4082 52.532 28.7458 52.5396ZM21.6521 48.2029V51.9355C18.8569 53.1341 16.4045 55.0187 14.5186 57.4173H14.3281C13.6776 57.0397 12.9915 56.728 12.2798 56.4869C12.3054 56.4625 12.331 56.4382 12.3551 56.4153C13.2307 55.5339 13.7656 54.3671 13.8638 53.1243C13.9621 51.8815 13.6172 50.6442 12.8912 49.6344C12.1651 48.6246 11.1054 47.9085 9.90235 47.6147C8.69926 47.3208 7.43155 47.4685 6.32683 48.0311V17.6859H33.799V23.8863H28.2852C28.1511 23.8862 28.0183 23.9128 27.8944 23.9644C27.7705 24.016 27.6579 24.0917 27.5631 24.1871C27.4682 24.2826 27.393 24.3959 27.3417 24.5206C27.2903 24.6454 27.2639 24.7791 27.2639 24.9141V31.3107H22.6727C22.5386 31.3107 22.4059 31.3373 22.2821 31.3889C22.1583 31.4406 22.0458 31.5163 21.951 31.6117C21.8562 31.7072 21.781 31.8205 21.7298 31.9452C21.6785 32.0699 21.6521 32.2035 21.6521 32.3385V40.7757C21.0609 41.923 20.7523 43.1967 20.7523 44.4893C20.7523 45.7819 21.0609 47.0556 21.6521 48.2029ZM24.1481 51.0766C23.9927 50.9649 23.8413 50.849 23.694 50.7287V51.2026C23.8446 51.1589 23.9967 51.1167 24.1481 51.0766ZM23.694 38.2498C25.2827 36.9444 27.3089 36.3037 29.3534 36.4602C31.398 36.6167 33.3047 37.5584 34.6794 39.0906C36.054 40.6228 36.7914 42.6284 36.7392 44.6927C36.687 46.757 35.8491 48.7222 34.3988 50.1819C34.0726 50.5095 33.7196 50.8088 33.3434 51.0766C37.1505 52.0849 40.53 54.3098 42.9744 57.4173H43.1634C43.8141 57.0399 44.5002 56.7283 45.2117 56.4869L45.1364 56.4153C44.2608 55.5339 43.7259 54.3671 43.6277 53.1243C43.5294 51.8815 43.8743 50.6442 44.6003 49.6344C45.3264 48.6246 46.3861 47.9085 47.5892 47.6147C48.7923 47.3208 50.06 47.4685 51.1647 48.0311V33.367H23.694V38.2498ZM28.7458 38.4953C27.1671 38.4953 25.6531 39.1269 24.5369 40.251C23.4206 41.3752 22.7935 42.8998 22.7935 44.4896C22.7935 46.0794 23.4206 47.6041 24.5369 48.7283C25.6531 49.8524 27.1671 50.484 28.7458 50.484C29.5274 50.484 30.3014 50.3289 31.0236 50.0277C31.7458 49.7264 32.4019 49.2849 32.9547 48.7283C33.5074 48.1716 33.9458 47.5108 34.2449 46.7836C34.5441 46.0563 34.698 45.2768 34.698 44.4896C34.698 43.7024 34.5441 42.923 34.2449 42.1957C33.9458 41.4684 33.5074 40.8076 32.9547 40.251C32.4019 39.6944 31.7458 39.2528 31.0236 38.9516C30.3014 38.6504 29.5274 38.4953 28.7458 38.4953ZM6.12356 54.5887C6.21914 54.7194 6.32414 54.8429 6.4377 54.9581C6.89445 55.4183 7.48019 55.7266 8.11613 55.8416C8.75208 55.9566 9.40774 55.8727 9.99494 55.6012C10.5821 55.3298 11.0727 54.8837 11.4007 54.3231C11.7287 53.7625 11.8783 53.1142 11.8295 52.4654C11.7807 51.8165 11.5358 51.1983 11.1277 50.6939C10.7197 50.1894 10.168 49.8228 9.54687 49.6435C8.92577 49.4642 8.26505 49.4808 7.65355 49.6909C7.04206 49.901 6.50912 50.2947 6.1264 50.8189L6.12072 50.8239C5.72402 51.3701 5.51019 52.0293 5.51019 52.706C5.51019 53.3827 5.72402 54.0418 6.12072 54.588L6.12356 54.5887Z" fill="#B256BD"/>
</svg>
