<svg width="32" height="34" viewBox="0 0 32 34" fill="none" xmlns="http://www.w3.org/2000/svg">
<path d="M29.9441 13.9834H25.1492C21.2171 13.9834 18.015 10.7667 18.015 6.81671V2.00004C18.015 1.08337 17.2684 0.333374 16.3559 0.333374H9.32116C4.21106 0.333374 0.079834 3.66671 0.079834 9.61671V24.3834C0.079834 30.3334 4.21106 33.6667 9.32116 33.6667H22.3619C27.472 33.6667 31.6032 30.3334 31.6032 24.3834V15.65C31.6032 14.7334 30.8566 13.9834 29.9441 13.9834ZM15.012 26.5834H8.37546C7.69522 26.5834 7.13112 26.0167 7.13112 25.3334C7.13112 24.65 7.69522 24.0834 8.37546 24.0834H15.012C15.6922 24.0834 16.2563 24.65 16.2563 25.3334C16.2563 26.0167 15.6922 26.5834 15.012 26.5834ZM18.3302 19.9167H8.37546C7.69522 19.9167 7.13112 19.35 7.13112 18.6667C7.13112 17.9834 7.69522 17.4167 8.37546 17.4167H18.3302C19.0105 17.4167 19.5746 17.9834 19.5746 18.6667C19.5746 19.35 19.0105 19.9167 18.3302 19.9167Z" fill="#B256BD"/>
</svg>
