<svg width="40" height="40" viewBox="0 0 40 40" fill="none" xmlns="http://www.w3.org/2000/svg">
<path d="M20.3491 0.00940999C22.9291 0.0213611 25.4814 0.542764 27.8594 1.54369C30.2375 2.54462 32.3944 4.00536 34.2065 5.84206C36.0185 7.67876 37.45 9.85525 38.4187 12.2466C39.3873 14.638 39.874 17.1971 39.8511 19.7771C39.8278 22.3815 39.2852 24.9551 38.255 27.3471C37.2248 29.7392 35.7277 31.9017 33.8513 33.708C31.9749 35.5142 29.7568 36.928 27.3273 37.8664C24.8977 38.8049 22.3055 39.2491 19.7021 39.1732C14.5185 39.0078 9.61022 36.8012 6.04586 33.034C2.4815 29.2668 0.549716 24.244 0.671171 19.0592C0.808168 13.9412 2.94487 9.08057 6.62338 5.51949C10.3019 1.95841 15.2293 -0.0196514 20.3491 0.00940999ZM20.3813 1.77637C18.0014 1.76362 15.6432 2.22702 13.4452 3.1393C11.2471 4.05158 9.25354 5.39432 7.58211 7.08849C5.91069 8.78266 4.59506 10.794 3.71256 13.0043C2.83007 15.2145 2.39847 17.5789 2.44338 19.9584C2.48503 22.3042 2.99146 24.6186 3.9334 26.7674C4.87535 28.9163 6.23421 30.857 7.93112 32.4773C9.62803 34.0976 11.6293 35.3653 13.8194 36.207C16.0094 37.0488 18.3447 37.4478 20.69 37.3811C25.3258 37.2725 29.7365 35.3594 32.9835 32.0487C36.2304 28.7381 38.0574 24.2912 38.076 19.6541C38.1024 17.3145 37.6641 14.9929 36.7864 12.8239C35.9088 10.6549 34.6093 8.68176 32.9633 7.01878C31.3174 5.3558 29.3578 4.03611 27.198 3.1362C25.0382 2.23629 22.7211 1.77408 20.3813 1.77637Z" fill="#B256BD"/>
<path d="M20.8956 25.9694H18.0953C18.0434 25.9227 18.0259 25.9103 18.0109 25.8925C17.9959 25.8748 17.9716 25.8594 17.9679 25.8399C17.9403 25.7326 17.923 25.6231 17.916 25.5129C17.9206 22.8319 17.9282 20.1509 17.9391 17.4699C17.9602 17.3796 17.9936 17.2921 18.0379 17.2097C18.8359 17.2097 19.6538 17.2055 20.4718 17.2097C20.5195 17.2071 20.5673 17.2142 20.612 17.2305C20.6566 17.2468 20.6971 17.2719 20.7307 17.3041C20.7642 17.3363 20.7901 17.375 20.8066 17.4174C20.8232 17.4599 20.8301 17.5052 20.8268 17.5503C20.8343 17.6834 20.8268 17.8164 20.8268 18.0347C21.0024 17.9164 21.1261 17.8407 21.243 17.7549C21.7153 17.3969 22.2742 17.1554 22.8694 17.0522C23.4647 16.949 24.0779 16.9872 24.6537 17.1635C25.1909 17.3116 25.6717 17.603 26.0385 18.0029C26.4053 18.4029 26.6427 18.8943 26.7221 19.4185C26.8195 19.8104 26.8717 20.2112 26.8777 20.6137C26.8965 22.2697 26.8883 23.9208 26.887 25.575C26.8781 25.6978 26.8615 25.82 26.8376 25.941H23.9475C23.9281 25.7323 23.8962 25.5418 23.8956 25.3496C23.8925 24.0308 23.9013 22.7126 23.8925 21.3944C23.892 21.1048 23.8597 20.816 23.7963 20.5327C23.7762 20.2488 23.6382 19.9839 23.4123 19.796C23.1864 19.6082 22.891 19.5126 22.5909 19.5303C22.259 19.483 21.9203 19.5546 21.6413 19.7312C21.3623 19.9077 21.1629 20.1765 21.0823 20.4848C20.9832 20.898 20.9329 21.3203 20.9323 21.7439C20.9161 22.906 20.9323 24.0681 20.9323 25.2302C20.9336 25.4502 20.9118 25.6684 20.8956 25.9694Z" fill="#B256BD"/>
<path d="M13.5113 16.9955H16.9338C17.0196 17.7415 17.0406 18.4915 16.9967 19.2399C17.0197 19.9732 17.0101 20.7078 17.0116 21.4412C17.0116 22.1976 17.0116 22.954 17.0116 23.711C17.0116 24.4389 17.0116 25.1631 17.0116 25.968C15.8848 25.968 14.8595 25.9729 13.8341 25.9644C13.777 25.9664 13.72 25.9581 13.6673 25.94C13.6146 25.9219 13.5675 25.8945 13.5292 25.8597C13.4909 25.8249 13.4626 25.7837 13.4461 25.7388C13.4295 25.694 13.4253 25.6468 13.4336 25.6005C13.4336 25.3257 13.4468 25.0503 13.4475 24.7755C13.4524 22.3896 13.4572 20.0048 13.4616 17.6209C13.4601 17.4274 13.4913 17.2285 13.5113 16.9955Z" fill="#B256BD"/>
<path d="M15.2366 16.0979C14.7645 16.0918 14.3129 15.9044 13.9762 15.575C13.6395 15.2456 13.4437 14.7995 13.4294 14.3297C13.447 13.861 13.6385 13.4153 13.967 13.0789C14.2955 12.7425 14.7377 12.5392 15.208 12.5084C15.6768 12.5419 16.1178 12.7423 16.4504 13.073C16.783 13.4036 16.9848 13.8424 17.019 14.309C17.0101 14.7781 16.8199 15.2258 16.488 15.5589C16.156 15.8921 15.7079 16.0851 15.2366 16.0979Z" fill="#B256BD"/>
</svg>
