<svg width="40" height="40" viewBox="0 0 40 40" fill="none" xmlns="http://www.w3.org/2000/svg">
<path d="M39.2012 19.778C39.1714 22.3886 38.6212 24.9671 37.583 27.3626C36.5448 29.7582 35.0395 31.9226 33.1548 33.7293C31.2701 35.536 29.0439 36.9488 26.6067 37.8849C24.1695 38.8211 21.57 39.2618 18.9605 39.1813C13.7971 38.9827 8.91793 36.7652 5.37279 33.006C1.82765 29.2467 -0.100216 24.246 0.00401682 19.0798C0.113054 13.9592 2.23307 9.08721 5.9054 5.51697C9.57773 1.94674 14.5075 -0.0348819 19.6291 0.00046487C22.2162 0.00211858 24.7774 0.516311 27.1647 1.51336C29.552 2.5104 31.718 3.97054 33.5378 5.80943C35.3575 7.64832 36.795 9.82953 37.7671 12.2271C38.7391 14.6246 39.2266 17.191 39.2012 19.778ZM37.4235 19.8256C37.4767 17.4669 37.057 15.1214 36.1896 12.9274C35.3222 10.7334 34.0246 8.73515 32.3729 7.05049C30.7212 5.36584 28.749 4.02884 26.5725 3.11827C24.396 2.2077 22.0594 1.74199 19.7001 1.74858C15.0253 1.69947 10.5203 3.49963 7.16669 6.75693C3.81308 10.0142 1.88239 14.4648 1.79529 19.1391C1.73158 21.478 2.13087 23.8065 2.97004 25.9906C3.80921 28.1747 5.07171 30.1715 6.68513 31.866C8.29855 33.5606 10.231 34.9196 12.3714 35.8648C14.5117 36.8101 16.8177 37.3229 19.157 37.374C21.5131 37.4385 23.8584 37.034 26.0568 36.1839C28.2551 35.3338 30.2624 34.0551 31.9621 32.4222C33.6617 30.7892 35.0198 28.8347 35.9572 26.6722C36.8946 24.5096 37.3926 22.1823 37.4224 19.8256H37.4235Z" fill="#B256BD"/>
<path d="M20.9371 17.7607H23.1071C23.1455 17.8994 23.1668 18.0428 23.1704 18.1873C23.0891 18.8335 22.9819 19.4755 22.9025 20.1216C22.9047 20.1759 22.8955 20.23 22.8757 20.28C22.856 20.33 22.8261 20.3747 22.7883 20.4108C22.7505 20.4469 22.7056 20.4735 22.657 20.4887C22.6083 20.5038 22.5573 20.5072 22.5073 20.4986C22.0117 20.4918 21.5161 20.4986 20.9479 20.4986V26.7302C20.7189 26.7464 20.558 26.7657 20.3987 26.7678C19.827 26.7741 19.256 26.7819 18.6844 26.7756C18.2059 26.7704 18.1946 26.7458 18.1932 26.2356C18.1883 24.5146 18.1815 22.7936 18.1727 21.0726C18.1727 20.9011 18.1464 20.7291 18.1269 20.4897H16.1523V17.8235H18.0884C18.1278 17.676 18.1568 17.5255 18.1751 17.3734C18.1965 16.7413 18.181 16.1067 18.2273 15.4772C18.2313 14.838 18.4226 14.2164 18.7742 13.7004C19.1258 13.1843 19.6197 12.8 20.1862 12.6019C20.5371 12.4829 20.9029 12.4216 21.2709 12.42C21.8216 12.4153 22.3728 12.4827 22.9239 12.5209C22.9796 12.516 23.0355 12.5244 23.0877 12.5457C23.14 12.5669 23.1871 12.6004 23.2258 12.6437C23.2644 12.687 23.2934 12.739 23.3109 12.7959C23.3284 12.8528 23.3339 12.9131 23.3269 12.9726C23.3235 13.487 23.3215 14.0014 23.3313 14.5153C23.3371 14.829 23.1899 14.9367 22.9219 14.9299C22.6295 14.9231 22.3318 14.9142 22.0375 14.9299C21.8934 14.9173 21.7486 14.9378 21.6125 14.99C21.4764 15.0423 21.3523 15.1251 21.2485 15.2329C21.1446 15.3407 21.0633 15.4711 21.0102 15.6153C20.957 15.7594 20.9331 15.9141 20.9401 16.069C20.9138 16.596 20.9371 17.1287 20.9371 17.7607Z" fill="#B256BD"/>
</svg>
