<svg width="32" height="33" viewBox="0 0 32 33" fill="none" xmlns="http://www.w3.org/2000/svg">
<path d="M21.653 3.16666H10.3463C6.66634 3.16666 5.33301 4.49999 5.33301 8.24666V24.7533C5.33301 28.5 6.66634 29.8333 10.3463 29.8333H21.6397C25.333 29.8333 26.6663 28.5 26.6663 24.7533V8.24666C26.6663 4.49999 25.333 3.16666 21.653 3.16666ZM15.9997 26.2333C14.7197 26.2333 13.6663 25.18 13.6663 23.9C13.6663 22.62 14.7197 21.5667 15.9997 21.5667C17.2797 21.5667 18.333 22.62 18.333 23.9C18.333 25.18 17.2797 26.2333 15.9997 26.2333ZM18.6663 8.83332H13.333C12.7863 8.83332 12.333 8.37999 12.333 7.83332C12.333 7.28666 12.7863 6.83332 13.333 6.83332H18.6663C19.213 6.83332 19.6663 7.28666 19.6663 7.83332C19.6663 8.37999 19.213 8.83332 18.6663 8.83332Z" fill="#250C2D"/>
</svg>
