<svg width="124" height="30" viewBox="0 0 124 30" fill="none" xmlns="http://www.w3.org/2000/svg">
<g clip-path="url(#clip0_1398_9902)">
<path d="M46.0001 0.269833C45.3701 0.409833 44.7901 0.659833 44.2001 0.909833C43.5201 1.19983 42.8401 1.51983 42.2301 1.93983C41.6601 2.31983 41.1301 2.77983 40.6501 3.26983C40.2201 3.70983 39.8701 4.20983 39.5001 4.68983C37.4901 7.28983 37.2601 11.3698 38.3701 14.3798C39.0001 16.0898 40.0801 17.6398 41.4901 18.8098C42.9701 20.0398 44.8801 20.6698 46.7701 20.9098C47.4301 20.9898 48.1001 21.0298 48.7701 21.0098C52.3701 20.9398 55.9901 19.3498 58.0201 16.2698C59.1401 14.5698 59.5601 12.5498 59.5601 10.5398C59.5601 5.85983 56.7801 2.12983 52.3501 0.639833C50.3301 -0.0401669 48.1001 -0.210167 46.0201 0.259833L46.0001 0.269833ZM50.9501 5.29983C51.1901 5.39983 51.4301 5.51983 51.6501 5.65983C52.7901 6.34983 53.6701 7.46983 54.0201 8.74983C54.4401 10.2698 54.1001 11.9298 53.3001 13.2898C52.4801 14.6798 51.1401 15.7998 49.5701 16.1798C48.3301 16.4798 46.9701 16.2998 45.8501 15.6898C42.9401 14.0998 42.0301 9.74983 43.9701 7.08983C44.8601 5.85983 46.3101 5.08983 47.8101 4.88983C48.8701 4.74983 49.9701 4.88983 50.9501 5.30983V5.29983Z" fill="black"/>
<path d="M0.11997 0.750427C0.11997 0.750427 0.0999698 0.790427 0.0899698 0.820427C-0.0800302 1.37043 0.0499698 2.25043 0.0499698 2.83043C0.0499698 3.76043 0.0399698 4.69043 0.0299698 5.62043C0.0299698 8.26043 0.0299698 10.9004 0.0299698 13.5404C0.0299698 14.0604 0.0299698 14.5704 0.0299698 15.0904L0.0999698 29.1404L3.07997 29.2104L6.07997 29.2804L6.12997 21.0504L6.19997 12.8204L7.03997 14.5204C7.48997 15.4504 8.61997 17.8504 9.56997 19.8504C10.52 21.8404 11.53 23.9304 11.85 24.5004L12.39 25.5204H16.34L18.3 21.6204C19.38 19.4704 20.38 17.3804 20.53 16.9704C20.69 16.5604 20.98 16.0404 21.16 15.8104C21.34 15.6104 21.43 15.4204 21.36 15.4204C21.29 15.4204 21.63 14.6004 22.13 13.6104C22.63 12.6104 23.06 11.8004 23.08 11.8004C23.1 11.8004 23.1 15.7204 23.06 20.5304L22.99 29.2604H28.88L28.83 14.9104C28.83 12.8704 28.81 10.8304 28.8 8.78043C28.79 6.19043 28.94 3.54043 28.76 0.960427C28.74 0.590427 28.73 0.610427 28.35 0.560427C27.9 0.500427 27.42 0.530427 26.97 0.520427L24.21 0.440427C23.96 0.440427 23.7 0.430427 23.45 0.510427C22.83 0.720427 22.71 1.62043 22.45 2.13043L20.4 6.30043C20.27 6.56043 20.14 6.82043 20.01 7.08043C18.2 10.7304 16.22 14.7904 15.59 16.1004L14.44 18.4804L13.94 17.3504C13.65 16.7204 13.4 16.1704 13.4 16.1004C13.38 16.0304 12.86 14.9704 12.25 13.7204C11.64 12.4704 11.14 11.4104 11.12 11.3404C11.07 10.9304 10.74 10.4504 10.57 10.0804C10.21 9.31043 9.84997 8.55043 9.48997 7.78043C8.48997 5.70043 7.55997 3.58043 6.57997 1.50043C6.39997 1.12043 6.14997 0.740427 5.75997 0.570427C5.49997 0.460427 5.19997 0.450427 4.90997 0.450427C3.93997 0.450427 2.95997 0.430427 1.98997 0.410427C1.60997 0.410427 1.21997 0.390427 0.83997 0.450427C0.63997 0.480427 0.23997 0.740427 0.10997 0.740427L0.11997 0.750427Z" fill="black"/>
<path d="M68.7199 0.599648C68.6099 10.1496 68.5799 19.6996 68.6299 29.2496C70.5099 29.2496 72.3899 29.2496 74.2599 29.2496C74.2599 25.6896 74.2599 22.1296 74.2599 18.5696C76.0399 18.8696 78.0499 18.1996 79.5499 19.2096C80.0599 19.5596 80.4499 20.0596 80.7799 20.5896C82.0099 22.5496 82.6699 24.8396 84.0599 26.7096C86.0699 29.3996 89.4299 29.7596 92.5499 29.3696C92.7699 29.3396 93.0099 29.2996 93.1799 29.1496C93.4599 28.9096 93.4799 28.4996 93.4699 28.1296C93.4699 27.0496 93.4499 25.9796 93.4399 24.8996C92.0699 25.2996 90.5699 24.7196 89.5099 23.7796C88.4499 22.8396 87.7299 21.5696 87.0499 20.3196C86.3699 19.0696 85.6799 17.7896 84.6499 16.8096C86.4499 16.2396 87.8999 14.8096 88.6999 13.1096C89.4999 11.4096 89.6699 9.44965 89.3899 7.57965C89.2099 6.37965 88.8499 5.17965 88.1699 4.16965C87.0399 2.48965 85.1399 1.45965 83.1799 0.969648C81.2199 0.479648 79.1799 0.479648 77.1499 0.489648C74.3399 0.489648 71.5299 0.499648 68.7199 0.509648C68.7199 0.539648 68.7199 0.569648 68.7199 0.599648ZM81.0299 5.58965C82.8599 6.21965 83.8299 7.62965 83.8299 9.68965C83.8299 11.5296 83.1499 12.5896 81.4599 13.4296C80.3299 13.9996 80.0199 14.0396 77.2599 14.0596L74.2599 14.0796V5.21965H77.1499C79.1599 5.21965 80.3299 5.32965 81.0299 5.57965V5.58965Z" fill="black"/>
<path d="M102.03 14.85V29.24H123.03V24.48H107.68V17.23H120.32V12.7H107.68V5.21996H123.03V0.459961H102.03V14.85Z" fill="black"/>
<path d="M47.1601 24.0198C47.1601 24.0198 47.0601 24.0898 47.0101 24.1198C45.3901 25.3598 45.5301 28.1598 47.3301 29.1698C48.1801 29.6498 49.2901 29.6398 50.1301 29.1498C50.6601 28.8398 51.0801 28.3498 51.3501 27.7898C51.6201 27.2198 51.7301 26.5698 51.6301 25.9498C51.4701 24.9698 50.7701 24.0898 49.8401 23.7198C48.9701 23.3698 47.9301 23.4898 47.1501 24.0098L47.1601 24.0198Z" fill="black"/>
</g>
<defs>
<clipPath id="clip0_1398_9902">
<rect width="123.02" height="29.54" fill="white"/>
</clipPath>
</defs>
</svg>
