<svg width="45" height="40" viewBox="0 0 45 40" fill="none" xmlns="http://www.w3.org/2000/svg">
<path fill-rule="evenodd" clip-rule="evenodd" d="M12.4383 5.35607H32.8194C36.7543 8.47552 39.0467 13.1823 39.0467 18.2273C39.0467 27.2949 31.6972 34.6439 22.6291 34.6439C13.561 34.6439 6.21203 27.2954 6.21203 18.2278C6.21203 13.1828 8.5034 8.47601 12.4383 5.35607ZM22.6286 14.6044C24.248 14.6044 25.5606 15.9166 25.5606 17.5354C25.5606 19.1547 24.248 20.4669 22.6286 20.4669C21.0093 20.4669 19.6977 19.1547 19.6977 17.5354C19.6977 15.9166 21.0093 14.6044 22.6286 14.6044ZM17.3225 10.4437H27.9358C29.9849 12.0679 31.1768 14.5196 31.1768 17.1458C31.1768 21.8681 27.3509 25.695 22.6281 25.695C17.9054 25.695 14.0785 21.8686 14.0785 17.1458C14.079 14.5196 15.2734 12.0679 17.3225 10.4437ZM18.0643 32.4824V31.9828L12.7693 23.3295L8.16229 22.0678C7.83668 20.8429 7.6637 19.555 7.6637 18.2273C7.6637 16.9762 7.81778 15.7479 8.11626 14.5642L13.294 13.5477C12.8589 14.68 12.6278 15.8972 12.6278 17.1453C12.6273 22.6705 17.1049 27.1472 22.6286 27.1472C28.1524 27.1472 32.63 22.6705 32.63 17.1458C32.63 15.856 32.3838 14.6001 31.9191 13.4362L37.1139 14.4562C37.4288 15.6724 37.5936 16.938 37.5936 18.2273C37.5936 19.6107 37.4041 20.9509 37.0533 22.2228L33.0132 23.329L27.7182 31.9824V32.3036C26.1304 32.8773 24.4166 33.1908 22.6286 33.1908C21.0369 33.1913 19.5039 32.9427 18.0643 32.4824ZM22.6286 40C34.6529 40 44.4018 30.2521 44.4018 18.2273C44.4018 11.1662 41.0401 4.89043 35.8298 0.912868C35.0216 0.296053 34.147 0 33.13 0H12.1277C11.1102 0 10.2361 0.295568 9.42693 0.912868C4.21719 4.89043 0.855469 11.1666 0.855469 18.2278C0.855469 30.2521 10.6044 40 22.6286 40Z" fill="#B256BD"/>
</svg>
