<svg width="39" height="39" viewBox="0 0 39 39" fill="none" xmlns="http://www.w3.org/2000/svg">
<path d="M16.7586 25.7769H16.3003C12.6336 25.7769 10.8003 24.8603 10.8003 20.2769V15.6936C10.8003 12.0269 12.6336 10.1936 16.3003 10.1936H23.6336C27.3003 10.1936 29.1336 12.0269 29.1336 15.6936V20.2769C29.1336 23.9436 27.3003 25.7769 23.6336 25.7769H23.1753C22.8911 25.7769 22.6161 25.9144 22.442 26.1436L21.067 27.9769C20.462 28.7836 19.472 28.7836 18.867 27.9769L17.492 26.1436C17.3453 25.9419 17.0061 25.7769 16.7586 25.7769Z" stroke="#1A1D3E" stroke-width="1.5" stroke-miterlimit="10" stroke-linecap="round" stroke-linejoin="round"/>
<path d="M15.3837 15.6936H24.5503" stroke="#1A1D3E" stroke-width="1.5" stroke-linecap="round" stroke-linejoin="round"/>
<path d="M15.3837 20.2771H20.8837" stroke="#1A1D3E" stroke-width="1.5" stroke-linecap="round" stroke-linejoin="round"/>
<circle cx="19.967" cy="19.3604" r="18.5" stroke="#1A1D3E"/>
</svg>
