<svg width="14" height="10" viewBox="0 0 14 10" fill="none" xmlns="http://www.w3.org/2000/svg">
<path d="M7.12898 9.26379C6.94595 9.26485 6.76452 9.22977 6.59509 9.16056C6.42565 9.09135 6.27154 8.98938 6.1416 8.86049L0.578907 3.2978C0.317038 3.03593 0.169922 2.68076 0.169922 2.31043C0.169922 1.94009 0.317038 1.58492 0.578907 1.32305C0.840776 1.06118 1.19595 0.914063 1.56628 0.914062C1.93662 0.914063 2.29179 1.06118 2.55366 1.32305L7.12898 5.91227L11.7043 1.33695C11.9703 1.10913 12.3125 0.990075 12.6625 1.00359C13.0125 1.01711 13.3445 1.16221 13.5922 1.40988C13.8399 1.65755 13.985 1.98956 13.9985 2.33955C14.012 2.68955 13.893 3.03176 13.6651 3.2978L8.10245 8.86049C7.84342 9.11741 7.4938 9.26225 7.12898 9.26379Z" fill="#B256BD"/>
</svg>
