<svg width="41" height="48" viewBox="0 0 41 48" fill="none" xmlns="http://www.w3.org/2000/svg">
<path d="M35.8632 21.6031V47.064H25.8515V34.0756C30.8145 29.8702 34.0245 25.0085 35.8632 21.6031ZM0.297043 42.5058V47.064H10.3088V41.8198C7.67702 42.4023 4.83241 42.7409 1.7429 42.7409C1.23614 42.7409 0.751051 42.655 0.297043 42.5058ZM40.5323 14.7361L29.3771 1.18283C29.103 0.85124 28.6791 0.656494 28.2289 0.656494C27.7786 0.656494 27.3548 0.85124 27.0807 1.18283L15.7955 14.8817C15.4601 15.2888 15.4027 15.8379 15.6457 16.2976C15.8897 16.759 16.3927 17.0503 16.9437 17.0503H21.7522C18.1654 31.8685 1.44996 37.367 1.2757 37.4231C0.605995 37.6372 0.200025 38.2706 0.316824 38.9197C0.43268 39.5689 1.03551 40.0461 1.7429 40.0461C24.1042 40.0461 33.0544 21.5031 34.8798 17.0503H39.5047C39.5075 17.0503 39.5103 17.0503 39.5131 17.0503C39.5169 17.0503 39.5207 17.0503 39.5235 17.0503C40.3232 17.0503 40.9703 16.4467 40.9703 15.7028C40.9703 15.3239 40.8026 14.98 40.5323 14.7361ZM13.0743 47.064H23.086V36.2143C20.2395 38.2056 16.9192 39.9268 13.0743 41.1005V47.064Z" fill="url(#paint0_linear_72_6510)"/>
<defs>
<linearGradient id="paint0_linear_72_6510" x1="14.6097" y1="-5.01901" x2="86.6222" y2="-7.59036" gradientUnits="userSpaceOnUse">
<stop stop-color="#FC4D95"/>
<stop offset="0.505208" stop-color="#561ED8"/>
<stop offset="1" stop-color="#816BFF"/>
</linearGradient>
</defs>
</svg>
