<svg width="37" height="44" viewBox="0 0 37 44" fill="none" xmlns="http://www.w3.org/2000/svg">
<path fill-rule="evenodd" clip-rule="evenodd" d="M13.7539 1.61336C16.5074 0.236628 19.7483 0.236628 22.5019 1.61336L33.0143 6.86964C34.9327 7.82878 36.1444 9.78945 36.1444 11.9342V27.4736C36.1444 30.8458 34.4072 33.9801 31.5476 35.7673L21.1289 42.279C19.2929 43.4265 16.9629 43.4265 15.1268 42.279L4.70812 35.7673C1.84851 33.9801 0.111328 30.8458 0.111328 27.4736V11.9342C0.111328 9.78945 1.32309 7.82878 3.24139 6.86962L13.7539 1.61336ZM25.3969 18.7171C26 18.114 26 17.1363 25.3969 16.5332C24.7938 15.9302 23.8162 15.9302 23.2131 16.5332L16.0688 23.6773L13.0427 20.6514C12.4397 20.0483 11.4619 20.0483 10.8588 20.6514C10.2557 21.2545 10.2557 22.2321 10.8588 22.8352L14.9769 26.9532C15.2664 27.2429 15.6593 27.4056 16.0688 27.4056C16.4784 27.4056 16.8712 27.2429 17.1607 26.9532L25.3969 18.7171Z" fill="url(#paint0_linear_72_6513)"/>
<defs>
<linearGradient id="paint0_linear_72_6513" x1="-10.6605" y1="-9.36646" x2="72.4577" y2="-39.9671" gradientUnits="userSpaceOnUse">
<stop stop-color="#FC4D95"/>
<stop offset="0.505208" stop-color="#561ED8"/>
<stop offset="1" stop-color="#816BFF"/>
</linearGradient>
</defs>
</svg>
