<svg width="62" height="57" viewBox="0 0 62 57" fill="none" xmlns="http://www.w3.org/2000/svg">
<path d="M0.0260551 12.0655C0.964039 12.4797 1.92808 12.4386 2.88467 12.4386C18.5922 12.4386 34.3034 12.4386 50.0109 12.4386C50.2901 12.4386 50.573 12.4461 50.8447 12.4013C51.2653 12.3341 51.4365 12.0207 51.444 11.6289C51.4514 11.2595 51.1425 10.9797 50.7479 10.9573C50.5767 10.9461 50.4055 10.9573 50.238 10.9573C34.188 10.9573 18.1381 10.9573 2.08813 10.9573C0.588101 10.9573 0.00372216 10.3752 0.00372216 8.87144C0.00372216 7.70726 0.00372216 6.53935 0.00372216 5.37517C0.0111665 3.15129 1.42559 1.40503 3.58816 0.942339C3.81149 0.893832 4.04599 0.878906 4.27676 0.878906C22.0985 0.878906 39.9164 0.878906 57.7344 0.878906C59.9528 0.878906 61.8921 2.72592 61.9777 4.94234C62.0149 5.8901 61.9888 6.83786 61.9888 7.78562C61.9888 19.3677 61.9888 30.9498 62 42.5319C62 44.4759 61.1476 45.8789 59.4354 46.7147C58.8845 46.9834 58.2146 47.1214 57.5967 47.1289C54.619 47.17 51.6412 47.1438 48.6635 47.155C48.3732 47.155 48.1833 47.0841 48.1126 46.7894C48.0977 46.7297 48.0717 46.67 48.0382 46.6177C47.2044 45.3453 47.4985 44.0879 48.0791 42.8267C48.269 42.4125 48.5518 42.1513 48.9799 42.0207C49.4824 41.8677 49.9886 41.7185 50.4874 41.5543C51.8013 41.1252 52.4787 40.1849 52.4824 38.7968C52.4824 37.5207 52.4862 36.2483 52.4824 34.9722C52.4787 33.4311 51.7864 32.5058 50.3124 32.0506C49.8844 31.92 49.4489 31.8006 49.0246 31.655C48.5518 31.4983 48.2541 31.1811 48.1126 30.6849C47.9823 30.2222 47.8186 29.7707 47.6287 29.3304C47.4501 28.9162 47.4575 28.5319 47.6176 28.1177C47.9191 27.3528 48.2206 26.5879 48.4774 25.808C48.7566 24.9573 48.5779 24.1401 47.9898 23.4983C46.8322 22.2446 45.6374 21.0207 44.4054 19.8379C43.5716 19.0394 42.5517 19.0804 41.5318 19.461C40.806 19.7297 40.0914 20.0244 39.3656 20.2968C39.2278 20.3491 39.0529 20.4013 38.9226 20.3603C38.2563 20.1588 37.5715 19.9834 36.9499 19.6849C36.6409 19.5356 36.3767 19.1662 36.2278 18.8379C35.9784 18.2931 35.8444 17.6923 35.6434 17.1214C35.2488 16.0058 34.3183 15.3341 33.1384 15.3229C31.7426 15.3117 30.3468 15.3117 28.951 15.3229C27.704 15.3341 26.766 16.017 26.3492 17.1998C26.1705 17.711 26.0253 18.2371 25.869 18.7558C25.709 19.2856 25.3926 19.6401 24.8454 19.7968C24.3094 19.9498 23.7958 20.1662 23.2598 20.3229C23.0848 20.3752 22.8615 20.364 22.6903 20.3005C21.864 19.9946 21.06 19.6289 20.2262 19.3379C19.1617 18.9685 18.2088 19.1998 17.4085 20.002C16.3775 21.0319 15.3465 22.0692 14.3154 23.1028C13.4407 23.9797 13.1764 24.9946 13.6343 26.17C13.8427 26.7035 14.0511 27.2371 14.2559 27.7744C14.334 27.9759 14.4085 28.1811 14.4643 28.3901C14.5946 28.8864 13.8688 31.1998 13.4295 31.4237C12.8861 31.6998 12.2794 31.8677 11.6913 32.0468C10.6752 32.3565 9.91211 32.9386 9.64784 34.0095C9.53989 34.4535 9.53617 34.9311 9.53245 35.3976C9.52128 36.517 9.53617 37.6364 9.53989 38.7558C9.53989 40.17 10.195 41.0991 11.5387 41.5655C12.0337 41.7371 12.5437 41.8752 13.0499 42.017C13.5412 42.155 13.8427 42.4722 13.9841 42.9573C14.0698 43.2558 14.1442 43.5655 14.2819 43.8379C14.6355 44.5431 14.5797 45.2035 14.2708 45.92C13.7497 47.1289 13.7832 47.1438 12.4841 47.1438C9.87861 47.1438 7.2731 47.1438 4.66759 47.1438C1.91319 47.1438 0.00744432 45.252 0.00744432 42.4946C0 32.4871 0 22.4759 0 12.4647C0 12.3453 0.0148886 12.2259 0.022333 12.0655H0.0260551ZM5.97779 7.14756C6.82272 7.14756 7.51876 6.45353 7.51876 5.61398C7.51876 4.83786 6.77433 4.12144 5.96662 4.12517C5.13286 4.12891 4.48148 4.79682 4.47403 5.65129C4.46659 6.50204 5.11797 7.14756 5.97406 7.14383L5.97779 7.14756ZM17.5984 7.14756C18.4582 7.14756 19.1319 6.49085 19.1505 5.6401C19.1654 4.83786 18.4172 4.11025 17.5909 4.11771C16.7832 4.12891 16.143 4.78562 16.1356 5.61398C16.1281 6.47965 16.7646 7.14756 17.5984 7.14756ZM11.8216 7.14756C12.607 7.15503 13.3067 6.47592 13.3291 5.68488C13.3514 4.8901 12.633 4.12891 11.8514 4.12517C11.0027 4.11771 10.3141 4.77816 10.3067 5.59906C10.2992 6.46846 10.9543 7.1401 11.8179 7.14756H11.8216Z" fill="#B256BD"/>
<path d="M19.2582 20.6759C19.6937 20.8103 20.0808 20.9185 20.4604 21.0491C21.1788 21.2953 21.8897 21.5528 22.6044 21.8028C22.69 21.8327 22.7868 21.8662 22.8761 21.8625C24.0672 21.8103 25.1429 21.3774 26.1553 20.8028C26.8737 20.3961 27.1529 19.6498 27.3688 18.8849C27.4916 18.4521 27.6181 18.0192 27.7745 17.5976C27.9569 17.105 28.3216 16.7916 28.8576 16.7842C30.2832 16.7655 31.7088 16.7506 33.1344 16.773C33.7113 16.7842 34.1208 17.1237 34.3106 17.6797C34.5116 18.2655 34.6828 18.8625 34.8764 19.4521C35.1481 20.273 35.6989 20.8364 36.4992 21.1312C39.3355 22.1722 38.6841 22.0939 41.4906 21.0677C41.606 21.0267 41.7251 20.9819 41.8368 20.9334C42.6333 20.5939 43.2922 20.6759 43.9175 21.3737C44.7847 22.3439 45.7376 23.2431 46.6644 24.1573C47.1297 24.6125 47.2488 25.105 46.992 25.717C46.7054 26.4036 46.456 27.105 46.1917 27.8028C45.9126 28.5342 45.9274 29.2506 46.2699 29.9707C46.4634 30.3737 46.6235 30.7991 46.7538 31.2245C47.0441 32.1573 47.6434 32.7692 48.5702 33.0603C49.0578 33.2133 49.5491 33.3513 50.0367 33.508C50.6918 33.7207 50.9933 34.1349 50.997 34.8215C50.997 36.1573 50.9896 37.4931 50.997 38.8327C51.0007 39.4334 50.7476 39.855 50.1968 40.0677C49.6794 40.2692 49.1508 40.4483 48.6148 40.5976C47.5987 40.8774 46.9696 41.5416 46.6384 42.5192C46.4969 42.9297 46.389 43.355 46.2103 43.7468C45.8791 44.4745 45.8939 45.1909 46.1768 45.9147C46.4411 46.5939 46.7054 47.273 46.9845 47.9446C47.219 48.508 47.152 48.9894 46.7091 49.4334C45.6743 50.4595 44.647 51.4968 43.6271 52.5416C43.1768 53.0043 42.6706 53.064 42.0973 52.8439C41.3306 52.5528 40.5713 52.2319 39.7933 51.9856C39.4546 51.8774 39.0377 51.814 38.7102 51.9073C37.8206 52.161 36.9422 52.4707 36.0898 52.8289C35.498 53.0752 35.1071 53.5752 34.8987 54.1946C34.7089 54.7543 34.5376 55.3177 34.3441 55.8737C34.091 56.5939 33.7523 56.8476 33.0041 56.8588C31.7162 56.8774 30.4321 56.8849 29.1442 56.8849C28.2956 56.8849 27.9457 56.6237 27.6702 55.814C27.5065 55.3289 27.3688 54.8364 27.2087 54.3513C26.9295 53.5155 26.3675 52.9595 25.5449 52.6536C24.994 52.4483 24.4431 52.2394 23.896 52.0267C23.3079 51.7953 22.7198 51.7842 22.128 52.0118C21.4356 52.2804 20.7396 52.5416 20.051 52.8215C19.3959 53.0864 18.8338 53.0192 18.3202 52.4819C17.3896 51.5043 16.4331 50.5491 15.469 49.605C14.9405 49.0864 14.8102 48.523 15.0968 47.8327C15.4095 47.0752 15.737 46.3103 15.938 45.5192C16.0534 45.064 16.0087 44.5342 15.9082 44.0677C15.7668 43.4185 15.5174 42.7953 15.2904 42.1685C15.0037 41.3849 14.4082 40.911 13.6452 40.6386C13.1203 40.4521 12.5843 40.2991 12.0521 40.1312C11.423 39.9297 11.0508 39.5155 11.0434 38.8401C11.0248 37.4745 11.0061 36.105 11.021 34.7394C11.0285 34.1312 11.3895 33.7319 11.9553 33.5304C12.4206 33.3662 12.8933 33.2133 13.3697 33.0752C14.371 32.7804 15.0261 32.161 15.3164 31.1386C15.4727 30.5901 15.7184 30.064 15.9045 29.523C16.1874 28.7021 15.9306 27.9334 15.6477 27.1685C15.4206 26.5603 15.201 25.9483 14.9814 25.3364C14.8437 24.9558 14.9628 24.6237 15.2271 24.355C16.3251 23.2356 17.4231 22.1162 18.5435 21.023C18.7259 20.8476 19.0274 20.7953 19.2656 20.6871L19.2582 20.6759ZM31.0388 49.7282C37.8131 49.661 43.8244 44.3924 43.8691 36.8252C43.91 29.8886 38.4533 24.0342 31.076 23.967C23.7806 23.8961 18.35 29.7394 18.1601 36.5192C17.9629 43.4968 23.587 49.7506 31.0425 49.7282H31.0388Z" fill="#B256BD"/>
<path d="M31.3852 48.227C25.5414 48.4733 20.0364 43.9248 19.6642 37.4994C19.2696 30.6823 24.6035 25.7942 30.3319 25.4397C36.4697 25.0591 41.7068 29.7196 42.3507 35.6487C43.017 41.7905 38.2526 48.0405 31.3852 48.227ZM30.9832 29.0815C26.5799 29.1636 23.1407 32.6823 23.2747 37.0741C23.3975 41.089 26.6097 44.5629 31.054 44.5778C35.4573 44.5927 38.971 40.7867 38.7179 36.3726C38.502 32.6599 35.4387 29.0741 30.9832 29.0778V29.0815Z" fill="#B256BD"/>
<path d="M30.9644 42.9925C26.6988 43.0484 24.6367 39.4066 24.7633 36.5895C24.9234 33.1119 27.8452 30.3805 31.3366 30.5634C34.4484 30.7275 37.4745 33.3544 37.2325 37.3357C37.0353 40.541 34.2474 43.1156 30.9607 42.9925H30.9644Z" fill="#B256BD"/>
</svg>
