<svg width="104" height="19" viewBox="0 0 104 19" fill="none" xmlns="http://www.w3.org/2000/svg">
<path d="M7.84149 12.4054L11.2488 11.5345L12.6724 15.9596L7.84149 12.4054ZM15.683 6.68568H9.68517L7.84149 0.989502L5.9978 6.68568H0L4.85426 10.2164L3.01057 15.9125L7.86482 12.3818L10.8521 10.2164L15.683 6.68568Z" fill="#219653"/>
<path d="M103.186 5.01971V6.80685H97.5505V5.01971H103.186ZM98.942 2.6709H101.252V11.8747C101.252 12.1853 101.299 12.4236 101.393 12.5895C101.491 12.7512 101.618 12.8618 101.776 12.9214C101.933 12.981 102.108 13.0108 102.299 13.0108C102.444 13.0108 102.576 13.0001 102.695 12.9789C102.818 12.9576 102.912 12.9384 102.976 12.9214L103.365 14.7277C103.242 14.7703 103.065 14.8171 102.835 14.8681C102.61 14.9192 102.333 14.949 102.006 14.9575C101.427 14.9745 100.906 14.8873 100.442 14.6958C99.9781 14.5001 99.61 14.1979 99.3377 13.7895C99.0696 13.381 98.9377 12.8704 98.942 12.2576V2.6709Z" fill="white"/>
<path d="M91.6322 15.015C90.6748 15.015 89.8451 14.8043 89.143 14.3831C88.4409 13.9618 87.8962 13.3725 87.509 12.6151C87.1261 11.8577 86.9346 10.9726 86.9346 9.9599C86.9346 8.94719 87.1261 8.06001 87.509 7.29834C87.8962 6.53668 88.4409 5.94522 89.143 5.52397C89.8451 5.10272 90.6748 4.89209 91.6322 4.89209C92.5896 4.89209 93.4193 5.10272 94.1214 5.52397C94.8235 5.94522 95.366 6.53668 95.749 7.29834C96.1362 8.06001 96.3298 8.94719 96.3298 9.9599C96.3298 10.9726 96.1362 11.8577 95.749 12.6151C95.366 13.3725 94.8235 13.9618 94.1214 14.3831C93.4193 14.8043 92.5896 15.015 91.6322 15.015ZM91.645 13.164C92.1641 13.164 92.5981 13.0214 92.947 12.7364C93.2959 12.447 93.5555 12.0598 93.7257 11.5747C93.9002 11.0896 93.9874 10.5492 93.9874 9.95352C93.9874 9.35355 93.9002 8.81103 93.7257 8.32595C93.5555 7.83661 93.2959 7.44727 92.947 7.15793C92.5981 6.86858 92.1641 6.72391 91.645 6.72391C91.1131 6.72391 90.6705 6.86858 90.3174 7.15793C89.9685 7.44727 89.7068 7.83661 89.5323 8.32595C89.3621 8.81103 89.277 9.35355 89.277 9.95352C89.277 10.5492 89.3621 11.0896 89.5323 11.5747C89.7068 12.0598 89.9685 12.447 90.3174 12.7364C90.6705 13.0214 91.1131 13.164 91.645 13.164Z" fill="white"/>
<path d="M84.9798 1.75171V14.8234H82.6693V1.75171H84.9798Z" fill="white"/>
<path d="M77.9829 14.8234V5.01967H80.2934V14.8234H77.9829ZM79.1446 3.62825C78.7786 3.62825 78.4637 3.50698 78.1999 3.26444C77.9361 3.01764 77.8042 2.72192 77.8042 2.37725C77.8042 2.02834 77.9361 1.73261 78.1999 1.49007C78.4637 1.24327 78.7786 1.11987 79.1446 1.11987C79.5147 1.11987 79.8296 1.24327 80.0892 1.49007C80.353 1.73261 80.4849 2.02834 80.4849 2.37725C80.4849 2.72192 80.353 3.01764 80.0892 3.26444C79.8296 3.50698 79.5147 3.62825 79.1446 3.62825Z" fill="white"/>
<path d="M66.7495 18.4999V5.01974H69.0217V6.64093H69.1558C69.2749 6.40265 69.443 6.14947 69.66 5.8814C69.877 5.60907 70.1706 5.37717 70.5408 5.18569C70.911 4.98996 71.3833 4.89209 71.9577 4.89209C72.7152 4.89209 73.3981 5.0857 74.0066 5.47291C74.6193 5.85587 75.1044 6.42392 75.4618 7.17707C75.8235 7.92597 76.0043 8.84507 76.0043 9.93437C76.0043 11.0109 75.8278 11.9258 75.4746 12.6789C75.1214 13.4321 74.6406 14.0065 74.0321 14.4022C73.4236 14.7979 72.7343 14.9958 71.9641 14.9958C71.4025 14.9958 70.9365 14.9022 70.5663 14.715C70.1961 14.5277 69.8983 14.3022 69.6728 14.0384C69.4515 13.7703 69.2792 13.5172 69.1558 13.2789H69.06V18.4999H66.7495ZM69.0154 9.92161C69.0154 10.5556 69.1047 11.1109 69.2834 11.5875C69.4664 12.064 69.7281 12.4364 70.0685 12.7044C70.4131 12.9683 70.8301 13.1002 71.3195 13.1002C71.8301 13.1002 72.2577 12.964 72.6024 12.6917C72.9471 12.4151 73.2066 12.0385 73.3811 11.5619C73.5598 11.0811 73.6491 10.5343 73.6491 9.92161C73.6491 9.31313 73.5619 8.77273 73.3875 8.30042C73.213 7.8281 72.9534 7.45791 72.6088 7.18984C72.2641 6.92177 71.8343 6.78773 71.3195 6.78773C70.8259 6.78773 70.4068 6.91751 70.0621 7.17707C69.7174 7.43663 69.4558 7.80045 69.277 8.26851C69.1026 8.73657 69.0154 9.2876 69.0154 9.92161Z" fill="white"/>
<path d="M64.8171 5.01971V6.80685H59.1813V5.01971H64.8171ZM60.5727 2.6709H62.8832V11.8747C62.8832 12.1853 62.93 12.4236 63.0236 12.5895C63.1215 12.7512 63.2491 12.8618 63.4066 12.9214C63.564 12.981 63.7385 13.0108 63.93 13.0108C64.0746 13.0108 64.2065 13.0001 64.3257 12.9789C64.4491 12.9576 64.5427 12.9384 64.6065 12.9214L64.9959 14.7277C64.8725 14.7703 64.6959 14.8171 64.4661 14.8681C64.2406 14.9192 63.964 14.949 63.6364 14.9575C63.0577 14.9745 62.5364 14.8873 62.0726 14.6958C61.6088 14.5001 61.2407 14.1979 60.9684 13.7895C60.7003 13.381 60.5684 12.8704 60.5727 12.2576V2.6709Z" fill="white"/>
<path d="M57.8057 7.61109L55.6994 7.84087C55.6399 7.62811 55.5356 7.42812 55.3867 7.2409C55.242 7.05368 55.0463 6.90262 54.7995 6.78773C54.5527 6.67285 54.2506 6.6154 53.8932 6.6154C53.4123 6.6154 53.0081 6.71965 52.6804 6.92815C52.3571 7.13665 52.1975 7.40685 52.2018 7.73875C52.1975 8.02384 52.3017 8.25574 52.5145 8.43445C52.7315 8.61317 53.0889 8.75997 53.5868 8.87486L55.259 9.23228C56.1866 9.43227 56.876 9.74928 57.327 10.1833C57.7823 10.6173 58.0121 11.1854 58.0163 11.8875C58.0121 12.5044 57.8312 13.0491 57.4738 13.5214C57.1206 13.9895 56.6292 14.3554 55.9994 14.6192C55.3697 14.883 54.6463 15.015 53.8293 15.015C52.6294 15.015 51.6635 14.7639 50.9316 14.2618C50.1997 13.7554 49.7636 13.0512 49.6232 12.1491L51.8762 11.9321C51.9784 12.3747 52.1954 12.7087 52.5273 12.9342C52.8592 13.1597 53.2911 13.2725 53.8229 13.2725C54.3719 13.2725 54.8123 13.1597 55.1441 12.9342C55.4803 12.7087 55.6484 12.43 55.6484 12.0981C55.6484 11.8173 55.5399 11.5854 55.3229 11.4024C55.1101 11.2194 54.7782 11.079 54.3272 10.9811L52.6549 10.6301C51.7145 10.4343 51.0188 10.1046 50.5678 9.64077C50.1168 9.17271 49.8934 8.58125 49.8976 7.8664C49.8934 7.26218 50.0572 6.7388 50.3891 6.29627C50.7252 5.84949 51.1912 5.50482 51.7869 5.26228C52.3869 5.01549 53.0783 4.89209 53.8612 4.89209C55.0101 4.89209 55.9143 5.13676 56.5739 5.62609C57.2377 6.11543 57.6483 6.7771 57.8057 7.61109Z" fill="white"/>
<path d="M45.3708 10.7003V5.01978H47.6813V14.8235H45.441V13.081H45.3389C45.1176 13.63 44.7538 14.0789 44.2475 14.4278C43.7454 14.7767 43.1262 14.9512 42.3901 14.9512C41.7476 14.9512 41.1795 14.8086 40.6859 14.5235C40.1966 14.2342 39.8136 13.8151 39.5371 13.2661C39.2605 12.713 39.1222 12.0449 39.1222 11.262V5.01978H41.4327V10.9046C41.4327 11.5258 41.6029 12.0194 41.9433 12.3853C42.2837 12.7513 42.7305 12.9342 43.2837 12.9342C43.6241 12.9342 43.9539 12.8513 44.273 12.6853C44.5921 12.5194 44.8538 12.2726 45.058 11.9449C45.2665 11.613 45.3708 11.1982 45.3708 10.7003Z" fill="white"/>
<path d="M31.996 14.8233V5.01957H34.2363V6.65352H34.3384C34.5171 6.0876 34.8235 5.65145 35.2575 5.34508C35.6958 5.03446 36.1957 4.87915 36.7574 4.87915C36.8851 4.87915 37.0276 4.88553 37.1851 4.8983C37.3468 4.90681 37.4808 4.9217 37.5872 4.94298V7.0684C37.4893 7.03435 37.334 7.00457 37.1212 6.97904C36.9127 6.94925 36.7106 6.93436 36.5149 6.93436C36.0936 6.93436 35.7149 7.02584 35.3788 7.20881C35.0469 7.38753 34.7852 7.63645 34.5937 7.95558C34.4022 8.27471 34.3065 8.64278 34.3065 9.05978V14.8233H31.996Z" fill="white"/>
<path d="M20.6764 3.73671V1.75171H31.1056V3.73671H27.0654V14.8234H24.7166V3.73671H20.6764Z" fill="white"/>
</svg>
