<svg width="16" height="28" viewBox="0 0 16 28" fill="none" xmlns="http://www.w3.org/2000/svg">
<path d="M16 27V8C16 5.87827 15.1571 3.84344 13.6569 2.34315C12.1566 0.842855 10.1217 0 8 0C5.87827 0 3.84344 0.842855 2.34315 2.34315C0.842854 3.84344 0 5.87827 0 8V22C2.37122e-08 23.5913 0.632141 25.1174 1.75736 26.2426C2.88258 27.3679 4.4087 28 6 28C7.5913 28 9.11742 27.3679 10.2426 26.2426C11.3679 25.1174 12 23.5913 12 22V8C12 6.93913 11.5786 5.92172 10.8284 5.17157C10.0783 4.42143 9.06087 4 8 4C6.93913 4 5.92172 4.42143 5.17157 5.17157C4.42143 5.92172 4 6.93913 4 8V24H6V8C6 7.46957 6.21071 6.96086 6.58579 6.58579C6.96086 6.21071 7.46957 6 8 6C8.53043 6 9.03914 6.21071 9.41421 6.58579C9.78929 6.96086 10 7.46957 10 8V22C10 23.0609 9.57857 24.0783 8.82843 24.8284C8.07828 25.5786 7.06087 26 6 26C4.93913 26 3.92172 25.5786 3.17157 24.8284C2.42143 24.0783 2 23.0609 2 22V8C2 6.4087 2.63214 4.88258 3.75736 3.75736C4.88258 2.63214 6.4087 2 8 2C9.5913 2 11.1174 2.63214 12.2426 3.75736C13.3679 4.88258 14 6.4087 14 8V27H16Z" fill="white"/>
</svg>
