<svg width="32" height="33" viewBox="0 0 32 33" fill="none" xmlns="http://www.w3.org/2000/svg">
<path d="M23.4137 3.16666H8.54699C5.30699 3.16666 2.66699 5.80666 2.66699 9.04666V17.7133V17.98C2.66699 21.2333 5.30699 23.86 8.54699 23.86H13.667C14.4003 23.86 15.0003 24.46 15.0003 25.1933V26.4867C15.0003 27.22 14.4003 27.82 13.667 27.82H10.4403C9.89366 27.82 9.44033 28.2733 9.44033 28.82C9.44033 29.3667 9.88033 29.8333 10.4403 29.8333H21.5737C22.1203 29.8333 22.5737 29.38 22.5737 28.8333C22.5737 28.2867 22.1203 27.8333 21.5737 27.8333H18.347C17.6137 27.8333 17.0137 27.2333 17.0137 26.5V25.2067C17.0137 24.4733 17.6137 23.8733 18.347 23.8733H23.427C26.6803 23.8733 29.307 21.2333 29.307 17.9933V17.7267V9.05999C29.2937 5.80666 26.6537 3.16666 23.4137 3.16666Z" fill="#250C2D"/>
</svg>
