<svg width="39" height="39" viewBox="0 0 39 39" fill="none" xmlns="http://www.w3.org/2000/svg">
<path d="M21.4303 22.6206L21.3359 23.0214L22.2889 23.3164L22.5657 22.6001L22.5897 22.5379L23.0857 22.0497L23.0857 22.0497L23.0881 22.0473C23.3812 21.7548 23.6479 21.555 23.8869 21.4316L23.9039 21.4229L23.9201 21.4128C24.3367 21.1558 24.8836 21.0968 25.4638 21.3361C25.6971 21.4348 25.9523 21.5707 26.2299 21.7645C26.2304 21.7649 26.2309 21.7652 26.2314 21.7656L29.632 24.1784L29.6319 24.1785L29.6417 24.1851C29.9463 24.3905 30.1554 24.6427 30.2786 24.932C30.4108 25.268 30.467 25.5621 30.467 25.8478C30.467 26.2621 30.3719 26.6812 30.186 27.0788C29.992 27.4938 29.7538 27.8501 29.4505 28.1803L29.4483 28.1827C28.908 28.7788 28.3333 29.1915 27.6742 29.4564L27.673 29.4569C27.0256 29.7191 26.3205 29.8604 25.5746 29.8604C24.4961 29.8604 23.3427 29.6031 22.1304 29.0916C20.9402 28.5867 19.7327 27.8905 18.5488 27.0395C17.3702 26.1747 16.2313 25.209 15.1525 24.1526C14.0851 23.0768 13.1184 21.941 12.2625 20.7754C11.3993 19.5728 10.7123 18.3781 10.2273 17.232C9.71572 16.0142 9.46698 14.8524 9.46698 13.7734C9.46698 13.0365 9.59925 12.3415 9.85256 11.6951C10.1109 11.0414 10.5284 10.4275 11.102 9.89251L11.1022 9.89265L11.1119 9.88305C11.82 9.18546 12.6001 8.86035 13.4162 8.86035C13.7434 8.86035 14.0808 8.93662 14.362 9.06873L14.362 9.06874L14.3654 9.07029C14.6883 9.21903 14.9523 9.43714 15.143 9.72271L15.147 9.72876L15.1512 9.73468L17.5296 13.0807L17.5296 13.0807L17.5324 13.0847C17.7292 13.3558 17.8701 13.6054 17.964 13.8439L17.9671 13.852L17.9706 13.8599C18.0819 14.1163 18.1343 14.3554 18.1343 14.5715C18.1343 14.8598 18.0515 15.1503 17.8777 15.4395L17.8734 15.4466L17.8693 15.4539C17.7448 15.6776 17.5419 15.9377 17.2661 16.213L17.2661 16.2129L17.2586 16.2207L16.5615 16.9472L16.3523 17.1652L16.448 17.4518C16.4696 17.5164 16.4928 17.5627 16.5049 17.5869L16.506 17.5889L16.5122 17.6014L16.5191 17.6134C16.6614 17.862 16.9273 18.2559 17.4133 18.8254L17.4133 18.8254L17.4177 18.8304C17.9225 19.4063 18.4011 19.9361 18.8821 20.4267L18.882 20.4268L18.8889 20.4335C19.4959 21.0291 20.01 21.5114 20.498 21.9139C20.88 22.235 21.1868 22.4624 21.4303 22.6206ZM24.8256 21.6785C24.5819 21.6588 24.3664 21.7469 24.1623 21.8703C23.8959 22.0072 23.6729 22.1997 23.4593 22.4127C23.4589 22.4131 23.4585 22.4135 23.4581 22.4139L22.6836 23.1768C22.6833 23.1771 22.6829 23.1775 22.6826 23.1778C22.4362 23.4165 22.037 23.4843 21.732 23.3779L21.4891 23.2701C21.1135 23.0668 20.6569 22.7454 20.1371 22.3051C19.6571 21.8958 19.1339 21.414 18.4958 20.7873C18.002 20.2842 17.5081 19.7509 16.9936 19.1569C16.5335 18.6193 16.2148 18.1775 16.0222 17.8271L15.9221 17.5772C15.8725 17.383 15.864 17.3007 15.864 17.2217C15.864 16.9824 15.9471 16.7834 16.1068 16.624L16.1069 16.6241L16.1137 16.617L16.8792 15.8223C17.103 15.5985 17.2837 15.3738 17.4121 15.1569C17.5312 14.9624 17.5965 14.7616 17.5965 14.551C17.5965 14.3745 17.5387 14.1813 17.4759 14.031L17.476 14.031L17.4725 14.0229C17.3812 13.8148 17.2469 13.5991 17.0917 13.3883L14.716 10.0359L14.716 10.0359L14.7147 10.034C14.5633 9.82246 14.3736 9.66341 14.1399 9.55455L14.14 9.55442L14.1289 9.54958C13.9108 9.45433 13.6685 9.39524 13.4162 9.39524C12.6908 9.39524 12.0502 9.71612 11.4818 10.2704C10.9631 10.7555 10.5919 11.2954 10.3581 11.8896C10.1172 12.4858 10.0047 13.1121 10.0047 13.7734C10.0047 14.8031 10.2484 15.903 10.721 17.0178L10.7212 17.0184C11.1992 18.1423 11.865 19.3007 12.7045 20.4529C13.5399 21.5995 14.4893 22.7136 15.5319 23.7646L15.5318 23.7646L15.5354 23.7681C16.578 24.7984 17.7042 25.756 18.8625 26.5997C19.9963 27.4275 21.1676 28.1027 22.3357 28.5904C24.1543 29.365 25.943 29.5835 27.4674 28.9499C28.0631 28.7049 28.5847 28.3324 29.0512 27.8107C29.3212 27.5173 29.5327 27.1995 29.7066 26.8298C29.8599 26.5103 29.9395 26.1712 29.9395 25.8273C29.9395 25.5936 29.894 25.3606 29.7835 25.1123L29.7789 25.1019L29.7738 25.0918C29.7132 24.9709 29.6011 24.7877 29.3256 24.5985L25.9255 22.186L25.9225 22.184C25.6938 22.0242 25.4771 21.9024 25.2624 21.8142L25.2613 21.8137C25.2404 21.8052 25.2203 21.7964 25.1947 21.7851L25.1927 21.7842C25.1695 21.774 25.1387 21.7604 25.1069 21.7478C25.0395 21.721 24.9434 21.688 24.8256 21.6785Z" fill="#1A1D3E" stroke="#1A1D3E"/>
<circle cx="19.967" cy="19.3604" r="18.4094" stroke="#1A1D3E" stroke-width="1.18123"/>
</svg>
