<svg width="49" height="49" viewBox="0 0 49 49" fill="none" xmlns="http://www.w3.org/2000/svg">
<path fill-rule="evenodd" clip-rule="evenodd" d="M0.302734 35.3638V15.8722C0.302734 15.4596 0.637706 15.1246 1.04499 15.1246H7.5679C7.98156 15.1246 8.31653 15.4596 8.31653 15.8722V35.3638C8.31653 35.777 7.98156 36.1119 7.5679 36.1119H1.04499C0.637706 36.1119 0.302734 35.777 0.302734 35.3638ZM25.1193 39.7557C18.0908 39.6903 16.803 38.0011 15.1154 35.7733C14.7671 35.3128 14.3928 34.8263 13.9329 34.327H10.3264C9.9127 34.327 9.57773 33.9921 9.57773 33.5795V18.4467C9.57773 18.0341 9.9127 17.6991 10.3264 17.6991H14.3003C15.6402 17.0542 16.593 16.3204 17.2959 15.3676C18.7544 13.3849 19.1877 10.1607 19.3456 7.73825C19.4307 6.42122 19.4573 5.08559 19.4769 3.68296C19.5099 2.16283 20.7248 0.90642 22.2684 0.933536C23.8385 0.961717 25.6186 2.09211 26.5906 3.27727C27.5365 4.43638 28.108 5.92674 28.108 7.5479V14.4058C28.108 15.1076 28.653 15.7106 29.3692 15.7106H36.3058C37.685 15.7106 38.9399 16.2736 39.8464 17.1823C40.753 18.0905 41.3176 19.3447 41.3176 20.7266V26.2C41.3176 26.4589 41.0677 26.6429 40.8247 26.5706C39.3599 26.1436 37.8095 26.0016 36.2595 26.1484C33.0805 26.4642 30.1833 28.012 28.1538 30.4865C26.1243 32.9717 25.1784 36.1539 25.5064 39.3303C25.533 39.5606 25.3496 39.7578 25.1193 39.7557ZM26.8011 39.1511C27.0967 42.092 28.5552 44.6346 30.6767 46.3679C32.7918 48.1013 35.5705 49.0264 38.5134 48.734C41.3378 48.4623 43.9389 47.0586 45.7323 44.868C47.4662 42.7524 48.3924 39.9748 48.1037 37.036C47.8278 34.2116 46.422 31.6111 44.2282 29.8161C42.113 28.0833 39.3344 27.1576 36.3919 27.4505C33.5606 27.7291 30.9728 29.1174 29.173 31.316C27.3599 33.522 26.5252 36.3145 26.8011 39.1511ZM42.4214 33.7464L35.5896 40.5766L32.4823 37.4715C32.141 37.1291 31.5891 37.1291 31.2408 37.4715C30.8995 37.8139 30.8995 38.3695 31.2408 38.712L34.9654 42.4376C35.3137 42.78 35.8656 42.78 36.2069 42.4376L43.656 34.9874C44.0043 34.6444 44.0043 34.0888 43.656 33.7464C43.3147 33.404 42.7628 33.404 42.4214 33.7464Z" fill="url(#paint0_linear_72_6507)"/>
<defs>
<linearGradient id="paint0_linear_72_6507" x1="6.24601" y1="-8.74147" x2="102.998" y2="-22.9902" gradientUnits="userSpaceOnUse">
<stop stop-color="#FC4D95"/>
<stop offset="0.505208" stop-color="#561ED8"/>
<stop offset="1" stop-color="#816BFF"/>
</linearGradient>
</defs>
</svg>
