<svg width="24" height="24" viewBox="0 0 24 24" fill="none" xmlns="http://www.w3.org/2000/svg">
<g clip-path="url(#clip0_3682_9721)">
<path fill-rule="evenodd" clip-rule="evenodd" d="M12 0C8.8174 0 5.76516 1.26428 3.51472 3.51472C1.26428 5.76516 0 8.8174 0 12C0 15.1826 1.26428 18.2348 3.51472 20.4853C5.76516 22.7357 8.8174 24 12 24C15.1826 24 18.2348 22.7357 20.4853 20.4853C22.7357 18.2348 24 15.1826 24 12C24 8.8174 22.7357 5.76516 20.4853 3.51472C18.2348 1.26428 15.1826 0 12 0ZM17.0806 8.60677C17.1777 8.60618 17.2725 8.63624 17.3516 8.69267C17.4306 8.74909 17.4898 8.82901 17.5208 8.92104C17.5518 9.01307 17.553 9.11253 17.5241 9.20526C17.4953 9.29799 17.438 9.37928 17.3603 9.43754L9.64154 15.3932L6.57323 11.5929C6.53112 11.5463 6.49896 11.4917 6.47872 11.4322C6.45847 11.3728 6.45056 11.3099 6.45548 11.2473C6.4604 11.1847 6.47803 11.1237 6.50731 11.0682C6.53659 11.0126 6.5769 10.9637 6.62576 10.9242C6.67462 10.8848 6.73102 10.8557 6.79149 10.8389C6.85197 10.822 6.91526 10.8176 6.97748 10.826C7.0397 10.8345 7.09955 10.8555 7.15337 10.8878C7.20718 10.9202 7.25383 10.9632 7.29046 11.0142L9.79292 14.1092L16.7935 8.70831C16.8747 8.64316 16.9765 8.60737 17.0806 8.60677Z" fill="#25A348"/>
</g>
<defs>
<clipPath id="clip0_3682_9721">
<rect width="24" height="24" fill="white"/>
</clipPath>
</defs>
</svg>
